# Tiled2Unity generated file. Do not modify by hand.
# Wavefront file for 'PlayerHouse_mesh_0002.obj'

# Vertices (Count = 552)
v 0 -1 0
v -1 -1 0
v -1 0 0
v 0 0 0
v -1 -1 0
v -2 -1 0
v -2 0 0
v -1 0 0
v -2 -1 0
v -3 -1 0
v -3 0 0
v -2 0 0
v -3 -1 0
v -4 -1 0
v -4 0 0
v -3 0 0
v -4 -1 0
v -5 -1 0
v -5 0 0
v -4 0 0
v -5 -1 0
v -6 -1 0
v -6 0 0
v -5 0 0
v -6 -1 0
v -7 -1 0
v -7 0 0
v -6 0 0
v -7 -1 0
v -8 -1 0
v -8 0 0
v -7 0 0
v -8 -1 0
v -9 -1 0
v -9 0 0
v -8 0 0
v -9 -1 0
v -10 -1 0
v -10 0 0
v -9 0 0
v -10 -1 0
v -11 -1 0
v -11 0 0
v -10 0 0
v -11 -1 0
v -12 -1 0
v -12 0 0
v -11 0 0
v -12 -1 0
v -13 -1 0
v -13 0 0
v -12 0 0
v -13 -1 0
v -14 -1 0
v -14 0 0
v -13 0 0
v -14 -1 0
v -15 -1 0
v -15 0 0
v -14 0 0
v -15 -1 0
v -16 -1 0
v -16 0 0
v -15 0 0
v 0 -2 0
v -1 -2 0
v -1 -1 0
v 0 -1 0
v -1 -2 0
v -2 -2 0
v -2 -1 0
v -1 -1 0
v -2 -2 0
v -3 -2 0
v -3 -1 0
v -2 -1 0
v -3 -2 0
v -4 -2 0
v -4 -1 0
v -3 -1 0
v -4 -2 0
v -5 -2 0
v -5 -1 0
v -4 -1 0
v -5 -2 0
v -6 -2 0
v -6 -1 0
v -5 -1 0
v -6 -2 0
v -7 -2 0
v -7 -1 0
v -6 -1 0
v -7 -2 0
v -8 -2 0
v -8 -1 0
v -7 -1 0
v -8 -2 0
v -9 -2 0
v -9 -1 0
v -8 -1 0
v -9 -2 0
v -10 -2 0
v -10 -1 0
v -9 -1 0
v -10 -2 0
v -11 -2 0
v -11 -1 0
v -10 -1 0
v -11 -2 0
v -12 -2 0
v -12 -1 0
v -11 -1 0
v -12 -2 0
v -13 -2 0
v -13 -1 0
v -12 -1 0
v -13 -2 0
v -14 -2 0
v -14 -1 0
v -13 -1 0
v -14 -2 0
v -15 -2 0
v -15 -1 0
v -14 -1 0
v -15 -2 0
v -16 -2 0
v -16 -1 0
v -15 -1 0
v 0 -3 0
v -1 -3 0
v -1 -2 0
v 0 -2 0
v -1 -3 0
v -2 -3 0
v -2 -2 0
v -1 -2 0
v -14 -3 0
v -15 -3 0
v -15 -2 0
v -14 -2 0
v -15 -3 0
v -16 -3 0
v -16 -2 0
v -15 -2 0
v 0 -4 0
v -1 -4 0
v -1 -3 0
v 0 -3 0
v -1 -4 0
v -2 -4 0
v -2 -3 0
v -1 -3 0
v -5 -4 0
v -6 -4 0
v -6 -3 0
v -5 -3 0
v -6 -4 0
v -7 -4 0
v -7 -3 0
v -6 -3 0
v -7 -4 0
v -8 -4 0
v -8 -3 0
v -7 -3 0
v -8 -4 0
v -9 -4 0
v -9 -3 0
v -8 -3 0
v -9 -4 0
v -10 -4 0
v -10 -3 0
v -9 -3 0
v -10 -4 0
v -11 -4 0
v -11 -3 0
v -10 -3 0
v -11 -4 0
v -12 -4 0
v -12 -3 0
v -11 -3 0
v -12 -4 0
v -13 -4 0
v -13 -3 0
v -12 -3 0
v -14 -4 0
v -15 -4 0
v -15 -3 0
v -14 -3 0
v -15 -4 0
v -16 -4 0
v -16 -3 0
v -15 -3 0
v 0 -5 0
v -1 -5 0
v -1 -4 0
v 0 -4 0
v -1 -5 0
v -2 -5 0
v -2 -4 0
v -1 -4 0
v -2 -5 0
v -3 -5 0
v -3 -4 0
v -2 -4 0
v -3 -5 0
v -4 -5 0
v -4 -4 0
v -3 -4 0
v -5 -5 0
v -6 -5 0
v -6 -4 0
v -5 -4 0
v -6 -5 0
v -7 -5 0
v -7 -4 0
v -6 -4 0
v -7 -5 0
v -8 -5 0
v -8 -4 0
v -7 -4 0
v -8 -5 0
v -9 -5 0
v -9 -4 0
v -8 -4 0
v -9 -5 0
v -10 -5 0
v -10 -4 0
v -9 -4 0
v -10 -5 0
v -11 -5 0
v -11 -4 0
v -10 -4 0
v -11 -5 0
v -12 -5 0
v -12 -4 0
v -11 -4 0
v -12 -5 0
v -13 -5 0
v -13 -4 0
v -12 -4 0
v -14 -5 0
v -15 -5 0
v -15 -4 0
v -14 -4 0
v -15 -5 0
v -16 -5 0
v -16 -4 0
v -15 -4 0
v 0 -6 0
v -1 -6 0
v -1 -5 0
v 0 -5 0
v -1 -6 0
v -2 -6 0
v -2 -5 0
v -1 -5 0
v -2 -6 0
v -3 -6 0
v -3 -5 0
v -2 -5 0
v -3 -6 0
v -4 -6 0
v -4 -5 0
v -3 -5 0
v -5 -6 0
v -6 -6 0
v -6 -5 0
v -5 -5 0
v -6 -6 0
v -7 -6 0
v -7 -5 0
v -6 -5 0
v -7 -6 0
v -8 -6 0
v -8 -5 0
v -7 -5 0
v -8 -6 0
v -9 -6 0
v -9 -5 0
v -8 -5 0
v -9 -6 0
v -10 -6 0
v -10 -5 0
v -9 -5 0
v -10 -6 0
v -11 -6 0
v -11 -5 0
v -10 -5 0
v -11 -6 0
v -12 -6 0
v -12 -5 0
v -11 -5 0
v -12 -6 0
v -13 -6 0
v -13 -5 0
v -12 -5 0
v -14 -6 0
v -15 -6 0
v -15 -5 0
v -14 -5 0
v -15 -6 0
v -16 -6 0
v -16 -5 0
v -15 -5 0
v 0 -7 0
v -1 -7 0
v -1 -6 0
v 0 -6 0
v -1 -7 0
v -2 -7 0
v -2 -6 0
v -1 -6 0
v -2 -7 0
v -3 -7 0
v -3 -6 0
v -2 -6 0
v -3 -7 0
v -4 -7 0
v -4 -6 0
v -3 -6 0
v -5 -7 0
v -6 -7 0
v -6 -6 0
v -5 -6 0
v -6 -7 0
v -7 -7 0
v -7 -6 0
v -6 -6 0
v -7 -7 0
v -8 -7 0
v -8 -6 0
v -7 -6 0
v -8 -7 0
v -9 -7 0
v -9 -6 0
v -8 -6 0
v -9 -7 0
v -10 -7 0
v -10 -6 0
v -9 -6 0
v -10 -7 0
v -11 -7 0
v -11 -6 0
v -10 -6 0
v -11 -7 0
v -12 -7 0
v -12 -6 0
v -11 -6 0
v -12 -7 0
v -13 -7 0
v -13 -6 0
v -12 -6 0
v -14 -7 0
v -15 -7 0
v -15 -6 0
v -14 -6 0
v -15 -7 0
v -16 -7 0
v -16 -6 0
v -15 -6 0
v 0 -8 0
v -1 -8 0
v -1 -7 0
v 0 -7 0
v -1 -8 0
v -2 -8 0
v -2 -7 0
v -1 -7 0
v -5 -8 0
v -6 -8 0
v -6 -7 0
v -5 -7 0
v -6 -8 0
v -7 -8 0
v -7 -7 0
v -6 -7 0
v -7 -8 0
v -8 -8 0
v -8 -7 0
v -7 -7 0
v -8 -8 0
v -9 -8 0
v -9 -7 0
v -8 -7 0
v -9 -8 0
v -10 -8 0
v -10 -7 0
v -9 -7 0
v -10 -8 0
v -11 -8 0
v -11 -7 0
v -10 -7 0
v -11 -8 0
v -12 -8 0
v -12 -7 0
v -11 -7 0
v -12 -8 0
v -13 -8 0
v -13 -7 0
v -12 -7 0
v -14 -8 0
v -15 -8 0
v -15 -7 0
v -14 -7 0
v -15 -8 0
v -16 -8 0
v -16 -7 0
v -15 -7 0
v 0 -9 0
v -1 -9 0
v -1 -8 0
v 0 -8 0
v -1 -9 0
v -2 -9 0
v -2 -8 0
v -1 -8 0
v -14 -9 0
v -15 -9 0
v -15 -8 0
v -14 -8 0
v -15 -9 0
v -16 -9 0
v -16 -8 0
v -15 -8 0
v 0 -10 0
v -1 -10 0
v -1 -9 0
v 0 -9 0
v -1 -10 0
v -2 -10 0
v -2 -9 0
v -1 -9 0
v -14 -10 0
v -15 -10 0
v -15 -9 0
v -14 -9 0
v -15 -10 0
v -16 -10 0
v -16 -9 0
v -15 -9 0
v 0 -11 0
v -1 -11 0
v -1 -10 0
v 0 -10 0
v -1 -11 0
v -2 -11 0
v -2 -10 0
v -1 -10 0
v -2 -11 0
v -3 -11 0
v -3 -10 0
v -2 -10 0
v -3 -11 0
v -4 -11 0
v -4 -10 0
v -3 -10 0
v -4 -11 0
v -5 -11 0
v -5 -10 0
v -4 -10 0
v -5 -11 0
v -6 -11 0
v -6 -10 0
v -5 -10 0
v -6 -11 0
v -7 -11 0
v -7 -10 0
v -6 -10 0
v -9 -11 0
v -10 -11 0
v -10 -10 0
v -9 -10 0
v -10 -11 0
v -11 -11 0
v -11 -10 0
v -10 -10 0
v -11 -11 0
v -12 -11 0
v -12 -10 0
v -11 -10 0
v -12 -11 0
v -13 -11 0
v -13 -10 0
v -12 -10 0
v -13 -11 0
v -14 -11 0
v -14 -10 0
v -13 -10 0
v -14 -11 0
v -15 -11 0
v -15 -10 0
v -14 -10 0
v -15 -11 0
v -16 -11 0
v -16 -10 0
v -15 -10 0
v 0 -12 0
v -1 -12 0
v -1 -11 0
v 0 -11 0
v -1 -12 0
v -2 -12 0
v -2 -11 0
v -1 -11 0
v -2 -12 0
v -3 -12 0
v -3 -11 0
v -2 -11 0
v -3 -12 0
v -4 -12 0
v -4 -11 0
v -3 -11 0
v -4 -12 0
v -5 -12 0
v -5 -11 0
v -4 -11 0
v -5 -12 0
v -6 -12 0
v -6 -11 0
v -5 -11 0
v -6 -12 0
v -7 -12 0
v -7 -11 0
v -6 -11 0
v -9 -12 0
v -10 -12 0
v -10 -11 0
v -9 -11 0
v -10 -12 0
v -11 -12 0
v -11 -11 0
v -10 -11 0
v -11 -12 0
v -12 -12 0
v -12 -11 0
v -11 -11 0
v -12 -12 0
v -13 -12 0
v -13 -11 0
v -12 -11 0
v -13 -12 0
v -14 -12 0
v -14 -11 0
v -13 -11 0
v -14 -12 0
v -15 -12 0
v -15 -11 0
v -14 -11 0
v -15 -12 0
v -16 -12 0
v -16 -11 0
v -15 -11 0

# Texture cooridinates (Count = 66)
vt 0.025 0.96
vt 0.05 0.96
vt 0.05 1
vt 0.025 1
vt 0.075 0.96
vt 0.075 1
vt 0.1 0.96
vt 0.1 1
vt 0.025 0.92
vt 0.05 0.92
vt 0.125 0.96
vt 0.125 1
vt 0.05 0.88
vt 0.075 0.88
vt 0.075 0.92
vt 0.15 0.96
vt 0.15 1
vt 0.1 0.92
vt 0 0.68
vt 0.025 0.68
vt 0.025 0.72
vt 0 0.72
vt 0.05 0.68
vt 0.05 0.72
vt 0.075 0.68
vt 0.075 0.72
vt 0.5 0.92
vt 0.525 0.92
vt 0.525 0.96
vt 0.5 0.96
vt 0.55 0.92
vt 0.55 0.96
vt 0 0.64
vt 0.025 0.64
vt 0.05 0.64
vt 0.325 0.92
vt 0.35 0.92
vt 0.35 0.96
vt 0.325 0.96
vt 0.375 0.92
vt 0.375 0.96
vt 0.4 0.92
vt 0.4 0.96
vt 0.075 0.64
vt 0.5 0.88
vt 0.525 0.88
vt 0.55 0.88
vt 0.325 0.88
vt 0.35 0.88
vt 0.375 0.88
vt 0.4 0.88
vt 0.5 0.84
vt 0.525 0.84
vt 0.55 0.84
vt 0.325 0.84
vt 0.35 0.84
vt 0.375 0.84
vt 0.4 0.84
vt 0 0.6
vt 0.025 0.6
vt 0.05 0.6
vt 0.075 0.6
vt 0.125 0.92
vt 0.15 0.92
vt 0.025 0.88
vt 0.1 0.88

# Normal
vn 0 0 -1

# Mesh description
g PlayerHouse_mesh_0002

# Faces
f 1/1/1 2/2/1 3/3/1 4/4/1
f 5/2/1 6/5/1 7/6/1 8/3/1
f 9/2/1 10/5/1 11/6/1 12/3/1
f 13/2/1 14/5/1 15/6/1 16/3/1
f 17/2/1 18/5/1 19/6/1 20/3/1
f 21/2/1 22/5/1 23/6/1 24/3/1
f 25/2/1 26/5/1 27/6/1 28/3/1
f 29/2/1 30/5/1 31/6/1 32/3/1
f 33/2/1 34/5/1 35/6/1 36/3/1
f 37/2/1 38/5/1 39/6/1 40/3/1
f 41/2/1 42/5/1 43/6/1 44/3/1
f 45/2/1 46/5/1 47/6/1 48/3/1
f 49/2/1 50/5/1 51/6/1 52/3/1
f 53/2/1 54/5/1 55/6/1 56/3/1
f 57/2/1 58/5/1 59/6/1 60/3/1
f 61/5/1 62/7/1 63/8/1 64/6/1
f 65/9/1 66/10/1 67/2/1 68/1/1
f 69/7/1 70/11/1 71/12/1 72/8/1
f 73/13/1 74/14/1 75/15/1 76/10/1
f 77/13/1 78/14/1 79/15/1 80/10/1
f 81/13/1 82/14/1 83/15/1 84/10/1
f 85/13/1 86/14/1 87/15/1 88/10/1
f 89/13/1 90/14/1 91/15/1 92/10/1
f 93/13/1 94/14/1 95/15/1 96/10/1
f 97/13/1 98/14/1 99/15/1 100/10/1
f 101/13/1 102/14/1 103/15/1 104/10/1
f 105/13/1 106/14/1 107/15/1 108/10/1
f 109/13/1 110/14/1 111/15/1 112/10/1
f 113/13/1 114/14/1 115/15/1 116/10/1
f 117/13/1 118/14/1 119/15/1 120/10/1
f 121/11/1 122/16/1 123/17/1 124/12/1
f 125/15/1 126/18/1 127/7/1 128/5/1
f 129/9/1 130/10/1 131/2/1 132/1/1
f 133/15/1 134/18/1 135/7/1 136/5/1
f 137/9/1 138/10/1 139/2/1 140/1/1
f 141/15/1 142/18/1 143/7/1 144/5/1
f 145/9/1 146/10/1 147/2/1 148/1/1
f 149/15/1 150/18/1 151/7/1 152/5/1
f 153/19/1 154/20/1 155/21/1 156/22/1
f 157/20/1 158/23/1 159/24/1 160/21/1
f 161/20/1 162/23/1 163/24/1 164/21/1
f 165/20/1 166/23/1 167/24/1 168/21/1
f 169/20/1 170/23/1 171/24/1 172/21/1
f 173/20/1 174/23/1 175/24/1 176/21/1
f 177/20/1 178/23/1 179/24/1 180/21/1
f 181/23/1 182/25/1 183/26/1 184/24/1
f 185/9/1 186/10/1 187/2/1 188/1/1
f 189/15/1 190/18/1 191/7/1 192/5/1
f 193/9/1 194/10/1 195/2/1 196/1/1
f 197/15/1 198/18/1 199/7/1 200/5/1
f 201/27/1 202/28/1 203/29/1 204/30/1
f 205/28/1 206/31/1 207/32/1 208/29/1
f 209/33/1 210/34/1 211/20/1 212/19/1
f 213/34/1 214/35/1 215/23/1 216/20/1
f 217/34/1 218/35/1 219/23/1 220/20/1
f 221/36/1 222/37/1 223/38/1 224/39/1
f 225/37/1 226/40/1 227/41/1 228/38/1
f 229/40/1 230/42/1 231/43/1 232/41/1
f 233/34/1 234/35/1 235/23/1 236/20/1
f 237/35/1 238/44/1 239/25/1 240/23/1
f 241/9/1 242/10/1 243/2/1 244/1/1
f 245/15/1 246/18/1 247/7/1 248/5/1
f 249/9/1 250/10/1 251/2/1 252/1/1
f 253/15/1 254/18/1 255/7/1 256/5/1
f 257/45/1 258/46/1 259/28/1 260/27/1
f 261/46/1 262/47/1 263/31/1 264/28/1
f 265/33/1 266/34/1 267/20/1 268/19/1
f 269/34/1 270/35/1 271/23/1 272/20/1
f 273/34/1 274/35/1 275/23/1 276/20/1
f 277/48/1 278/49/1 279/37/1 280/36/1
f 281/49/1 282/50/1 283/40/1 284/37/1
f 285/50/1 286/51/1 287/42/1 288/40/1
f 289/34/1 290/35/1 291/23/1 292/20/1
f 293/35/1 294/44/1 295/25/1 296/23/1
f 297/9/1 298/10/1 299/2/1 300/1/1
f 301/15/1 302/18/1 303/7/1 304/5/1
f 305/9/1 306/10/1 307/2/1 308/1/1
f 309/15/1 310/18/1 311/7/1 312/5/1
f 313/52/1 314/53/1 315/46/1 316/45/1
f 317/53/1 318/54/1 319/47/1 320/46/1
f 321/33/1 322/34/1 323/20/1 324/19/1
f 325/34/1 326/35/1 327/23/1 328/20/1
f 329/34/1 330/35/1 331/23/1 332/20/1
f 333/55/1 334/56/1 335/49/1 336/48/1
f 337/56/1 338/57/1 339/50/1 340/49/1
f 341/57/1 342/58/1 343/51/1 344/50/1
f 345/34/1 346/35/1 347/23/1 348/20/1
f 349/35/1 350/44/1 351/25/1 352/23/1
f 353/9/1 354/10/1 355/2/1 356/1/1
f 357/15/1 358/18/1 359/7/1 360/5/1
f 361/9/1 362/10/1 363/2/1 364/1/1
f 365/15/1 366/18/1 367/7/1 368/5/1
f 369/59/1 370/60/1 371/34/1 372/33/1
f 373/60/1 374/61/1 375/35/1 376/34/1
f 377/60/1 378/61/1 379/35/1 380/34/1
f 381/60/1 382/61/1 383/35/1 384/34/1
f 385/60/1 386/61/1 387/35/1 388/34/1
f 389/60/1 390/61/1 391/35/1 392/34/1
f 393/60/1 394/61/1 395/35/1 396/34/1
f 397/61/1 398/62/1 399/44/1 400/35/1
f 401/9/1 402/10/1 403/2/1 404/1/1
f 405/15/1 406/18/1 407/7/1 408/5/1
f 409/9/1 410/10/1 411/2/1 412/1/1
f 413/15/1 414/18/1 415/7/1 416/5/1
f 417/9/1 418/10/1 419/2/1 420/1/1
f 421/15/1 422/18/1 423/7/1 424/5/1
f 425/9/1 426/10/1 427/2/1 428/1/1
f 429/15/1 430/18/1 431/7/1 432/5/1
f 433/9/1 434/10/1 435/2/1 436/1/1
f 437/15/1 438/18/1 439/7/1 440/5/1
f 441/9/1 442/10/1 443/2/1 444/1/1
f 445/18/1 446/63/1 447/11/1 448/7/1
f 449/2/1 450/5/1 451/6/1 452/3/1
f 453/2/1 454/5/1 455/6/1 456/3/1
f 457/2/1 458/5/1 459/6/1 460/3/1
f 461/2/1 462/5/1 463/6/1 464/3/1
f 465/5/1 466/7/1 467/8/1 468/6/1
f 469/1/1 470/2/1 471/3/1 472/4/1
f 473/2/1 474/5/1 475/6/1 476/3/1
f 477/2/1 478/5/1 479/6/1 480/3/1
f 481/2/1 482/5/1 483/6/1 484/3/1
f 485/2/1 486/5/1 487/6/1 488/3/1
f 489/63/1 490/64/1 491/16/1 492/11/1
f 493/15/1 494/18/1 495/7/1 496/5/1
f 497/65/1 498/13/1 499/10/1 500/9/1
f 501/13/1 502/14/1 503/15/1 504/10/1
f 505/13/1 506/14/1 507/15/1 508/10/1
f 509/13/1 510/14/1 511/15/1 512/10/1
f 513/13/1 514/14/1 515/15/1 516/10/1
f 517/13/1 518/14/1 519/15/1 520/10/1
f 521/14/1 522/66/1 523/18/1 524/15/1
f 525/65/1 526/13/1 527/10/1 528/9/1
f 529/13/1 530/14/1 531/15/1 532/10/1
f 533/13/1 534/14/1 535/15/1 536/10/1
f 537/13/1 538/14/1 539/15/1 540/10/1
f 541/13/1 542/14/1 543/15/1 544/10/1
f 545/13/1 546/14/1 547/15/1 548/10/1
f 549/14/1 550/66/1 551/18/1 552/15/1

