# Tiled2Unity generated file. Do not modify by hand.
# Wavefront file for 'Fields_mesh_0002.obj'

# Vertices (Count = 800)
v 0 -1 0
v -1 -1 0
v -1 0 0
v 0 0 0
v -1 -1 0
v -2 -1 0
v -2 0 0
v -1 0 0
v -2 -1 0
v -3 -1 0
v -3 0 0
v -2 0 0
v -3 -1 0
v -4 -1 0
v -4 0 0
v -3 0 0
v -4 -1 0
v -5 -1 0
v -5 0 0
v -4 0 0
v -5 -1 0
v -6 -1 0
v -6 0 0
v -5 0 0
v -6 -1 0
v -7 -1 0
v -7 0 0
v -6 0 0
v -7 -1 0
v -8 -1 0
v -8 0 0
v -7 0 0
v -17 -1 0
v -18 -1 0
v -18 0 0
v -17 0 0
v -18 -1 0
v -19 -1 0
v -19 0 0
v -18 0 0
v -19 -1 0
v -20 -1 0
v -20 0 0
v -19 0 0
v -20 -1 0
v -21 -1 0
v -21 0 0
v -20 0 0
v -21 -1 0
v -22 -1 0
v -22 0 0
v -21 0 0
v -22 -1 0
v -23 -1 0
v -23 0 0
v -22 0 0
v -23 -1 0
v -24 -1 0
v -24 0 0
v -23 0 0
v -24 -1 0
v -25 -1 0
v -25 0 0
v -24 0 0
v 0 -2 0
v -1 -2 0
v -1 -1 0
v 0 -1 0
v -1 -2 0
v -2 -2 0
v -2 -1 0
v -1 -1 0
v -2 -2 0
v -3 -2 0
v -3 -1 0
v -2 -1 0
v -3 -2 0
v -4 -2 0
v -4 -1 0
v -3 -1 0
v -4 -2 0
v -5 -2 0
v -5 -1 0
v -4 -1 0
v -5 -2 0
v -6 -2 0
v -6 -1 0
v -5 -1 0
v -6 -2 0
v -7 -2 0
v -7 -1 0
v -6 -1 0
v -7 -2 0
v -8 -2 0
v -8 -1 0
v -7 -1 0
v -17 -2 0
v -18 -2 0
v -18 -1 0
v -17 -1 0
v -18 -2 0
v -19 -2 0
v -19 -1 0
v -18 -1 0
v -19 -2 0
v -20 -2 0
v -20 -1 0
v -19 -1 0
v -20 -2 0
v -21 -2 0
v -21 -1 0
v -20 -1 0
v -21 -2 0
v -22 -2 0
v -22 -1 0
v -21 -1 0
v -22 -2 0
v -23 -2 0
v -23 -1 0
v -22 -1 0
v -23 -2 0
v -24 -2 0
v -24 -1 0
v -23 -1 0
v -24 -2 0
v -25 -2 0
v -25 -1 0
v -24 -1 0
v 0 -3 0
v -1 -3 0
v -1 -2 0
v 0 -2 0
v -1 -3 0
v -2 -3 0
v -2 -2 0
v -1 -2 0
v -2 -3 0
v -3 -3 0
v -3 -2 0
v -2 -2 0
v -3 -3 0
v -4 -3 0
v -4 -2 0
v -3 -2 0
v -4 -3 0
v -5 -3 0
v -5 -2 0
v -4 -2 0
v -5 -3 0
v -6 -3 0
v -6 -2 0
v -5 -2 0
v -6 -3 0
v -7 -3 0
v -7 -2 0
v -6 -2 0
v -7 -3 0
v -8 -3 0
v -8 -2 0
v -7 -2 0
v -17 -3 0
v -18 -3 0
v -18 -2 0
v -17 -2 0
v -18 -3 0
v -19 -3 0
v -19 -2 0
v -18 -2 0
v -19 -3 0
v -20 -3 0
v -20 -2 0
v -19 -2 0
v -20 -3 0
v -21 -3 0
v -21 -2 0
v -20 -2 0
v -21 -3 0
v -22 -3 0
v -22 -2 0
v -21 -2 0
v -22 -3 0
v -23 -3 0
v -23 -2 0
v -22 -2 0
v -23 -3 0
v -24 -3 0
v -24 -2 0
v -23 -2 0
v -24 -3 0
v -25 -3 0
v -25 -2 0
v -24 -2 0
v 0 -4 0
v -1 -4 0
v -1 -3 0
v 0 -3 0
v -1 -4 0
v -2 -4 0
v -2 -3 0
v -1 -3 0
v -2 -4 0
v -3 -4 0
v -3 -3 0
v -2 -3 0
v -3 -4 0
v -4 -4 0
v -4 -3 0
v -3 -3 0
v -4 -4 0
v -5 -4 0
v -5 -3 0
v -4 -3 0
v -5 -4 0
v -6 -4 0
v -6 -3 0
v -5 -3 0
v -6 -4 0
v -7 -4 0
v -7 -3 0
v -6 -3 0
v -7 -4 0
v -8 -4 0
v -8 -3 0
v -7 -3 0
v -17 -4 0
v -18 -4 0
v -18 -3 0
v -17 -3 0
v -18 -4 0
v -19 -4 0
v -19 -3 0
v -18 -3 0
v -19 -4 0
v -20 -4 0
v -20 -3 0
v -19 -3 0
v -20 -4 0
v -21 -4 0
v -21 -3 0
v -20 -3 0
v -21 -4 0
v -22 -4 0
v -22 -3 0
v -21 -3 0
v -22 -4 0
v -23 -4 0
v -23 -3 0
v -22 -3 0
v -23 -4 0
v -24 -4 0
v -24 -3 0
v -23 -3 0
v -24 -4 0
v -25 -4 0
v -25 -3 0
v -24 -3 0
v 0 -5 0
v -1 -5 0
v -1 -4 0
v 0 -4 0
v -17 -5 0
v -18 -5 0
v -18 -4 0
v -17 -4 0
v -24 -5 0
v -25 -5 0
v -25 -4 0
v -24 -4 0
v 0 -6 0
v -1 -6 0
v -1 -5 0
v 0 -5 0
v -24 -6 0
v -25 -6 0
v -25 -5 0
v -24 -5 0
v 0 -7 0
v -1 -7 0
v -1 -6 0
v 0 -6 0
v -2 -7 0
v -3 -7 0
v -3 -6 0
v -2 -6 0
v -3 -7 0
v -4 -7 0
v -4 -6 0
v -3 -6 0
v -22 -7 0
v -23 -7 0
v -23 -6 0
v -22 -6 0
v -24 -7 0
v -25 -7 0
v -25 -6 0
v -24 -6 0
v 0 -8 0
v -1 -8 0
v -1 -7 0
v 0 -7 0
v -9 -8 0
v -10 -8 0
v -10 -7 0
v -9 -7 0
v -10 -8 0
v -11 -8 0
v -11 -7 0
v -10 -7 0
v -15 -8 0
v -16 -8 0
v -16 -7 0
v -15 -7 0
v -24 -8 0
v -25 -8 0
v -25 -7 0
v -24 -7 0
v 0 -9 0
v -1 -9 0
v -1 -8 0
v 0 -8 0
v -2 -9 0
v -3 -9 0
v -3 -8 0
v -2 -8 0
v -9 -9 0
v -10 -9 0
v -10 -8 0
v -9 -8 0
v -10 -9 0
v -11 -9 0
v -11 -8 0
v -10 -8 0
v -24 -9 0
v -25 -9 0
v -25 -8 0
v -24 -8 0
v 0 -10 0
v -1 -10 0
v -1 -9 0
v 0 -9 0
v -1 -10 0
v -2 -10 0
v -2 -9 0
v -1 -9 0
v -2 -10 0
v -3 -10 0
v -3 -9 0
v -2 -9 0
v -7 -10 0
v -8 -10 0
v -8 -9 0
v -7 -9 0
v -24 -10 0
v -25 -10 0
v -25 -9 0
v -24 -9 0
v 0 -11 0
v -1 -11 0
v -1 -10 0
v 0 -10 0
v -1 -11 0
v -2 -11 0
v -2 -10 0
v -1 -10 0
v -14 -11 0
v -15 -11 0
v -15 -10 0
v -14 -10 0
v -15 -11 0
v -16 -11 0
v -16 -10 0
v -15 -10 0
v -24 -11 0
v -25 -11 0
v -25 -10 0
v -24 -10 0
v 0 -12 0
v -1 -12 0
v -1 -11 0
v 0 -11 0
v -14 -12 0
v -15 -12 0
v -15 -11 0
v -14 -11 0
v -15 -12 0
v -16 -12 0
v -16 -11 0
v -15 -11 0
v -24 -12 0
v -25 -12 0
v -25 -11 0
v -24 -11 0
v 0 -13 0
v -1 -13 0
v -1 -12 0
v 0 -12 0
v -13 -13 0
v -14 -13 0
v -14 -12 0
v -13 -12 0
v -24 -13 0
v -25 -13 0
v -25 -12 0
v -24 -12 0
v 0 -14 0
v -1 -14 0
v -1 -13 0
v 0 -13 0
v -24 -14 0
v -25 -14 0
v -25 -13 0
v -24 -13 0
v 0 -15 0
v -1 -15 0
v -1 -14 0
v 0 -14 0
v -4 -15 0
v -5 -15 0
v -5 -14 0
v -4 -14 0
v -24 -15 0
v -25 -15 0
v -25 -14 0
v -24 -14 0
v 0 -16 0
v -1 -16 0
v -1 -15 0
v 0 -15 0
v -3 -16 0
v -4 -16 0
v -4 -15 0
v -3 -15 0
v -4 -16 0
v -5 -16 0
v -5 -15 0
v -4 -15 0
v -24 -16 0
v -25 -16 0
v -25 -15 0
v -24 -15 0
v 0 -17 0
v -1 -17 0
v -1 -16 0
v 0 -16 0
v -24 -17 0
v -25 -17 0
v -25 -16 0
v -24 -16 0
v 0 -18 0
v -1 -18 0
v -1 -17 0
v 0 -17 0
v -3 -18 0
v -4 -18 0
v -4 -17 0
v -3 -17 0
v -4 -18 0
v -5 -18 0
v -5 -17 0
v -4 -17 0
v -5 -18 0
v -6 -18 0
v -6 -17 0
v -5 -17 0
v -6 -18 0
v -7 -18 0
v -7 -17 0
v -6 -17 0
v -7 -18 0
v -8 -18 0
v -8 -17 0
v -7 -17 0
v -8 -18 0
v -9 -18 0
v -9 -17 0
v -8 -17 0
v -9 -18 0
v -10 -18 0
v -10 -17 0
v -9 -17 0
v -10 -18 0
v -11 -18 0
v -11 -17 0
v -10 -17 0
v -14 -18 0
v -15 -18 0
v -15 -17 0
v -14 -17 0
v 0 -19 0
v -1 -19 0
v -1 -18 0
v 0 -18 0
v -2 -19 0
v -3 -19 0
v -3 -18 0
v -2 -18 0
v -3 -19 0
v -4 -19 0
v -4 -18 0
v -3 -18 0
v -4 -19 0
v -5 -19 0
v -5 -18 0
v -4 -18 0
v -5 -19 0
v -6 -19 0
v -6 -18 0
v -5 -18 0
v -6 -19 0
v -7 -19 0
v -7 -18 0
v -6 -18 0
v -7 -19 0
v -8 -19 0
v -8 -18 0
v -7 -18 0
v -8 -19 0
v -9 -19 0
v -9 -18 0
v -8 -18 0
v -9 -19 0
v -10 -19 0
v -10 -18 0
v -9 -18 0
v -24 -19 0
v -25 -19 0
v -25 -18 0
v -24 -18 0
v 0 -20 0
v -1 -20 0
v -1 -19 0
v 0 -19 0
v -2 -20 0
v -3 -20 0
v -3 -19 0
v -2 -19 0
v -3 -20 0
v -4 -20 0
v -4 -19 0
v -3 -19 0
v -4 -20 0
v -5 -20 0
v -5 -19 0
v -4 -19 0
v -5 -20 0
v -6 -20 0
v -6 -19 0
v -5 -19 0
v -6 -20 0
v -7 -20 0
v -7 -19 0
v -6 -19 0
v -7 -20 0
v -8 -20 0
v -8 -19 0
v -7 -19 0
v -8 -20 0
v -9 -20 0
v -9 -19 0
v -8 -19 0
v -9 -20 0
v -10 -20 0
v -10 -19 0
v -9 -19 0
v -24 -20 0
v -25 -20 0
v -25 -19 0
v -24 -19 0
v 0 -21 0
v -1 -21 0
v -1 -20 0
v 0 -20 0
v -2 -21 0
v -3 -21 0
v -3 -20 0
v -2 -20 0
v -3 -21 0
v -4 -21 0
v -4 -20 0
v -3 -20 0
v -4 -21 0
v -5 -21 0
v -5 -20 0
v -4 -20 0
v -5 -21 0
v -6 -21 0
v -6 -20 0
v -5 -20 0
v -6 -21 0
v -7 -21 0
v -7 -20 0
v -6 -20 0
v -7 -21 0
v -8 -21 0
v -8 -20 0
v -7 -20 0
v -8 -21 0
v -9 -21 0
v -9 -20 0
v -8 -20 0
v -24 -21 0
v -25 -21 0
v -25 -20 0
v -24 -20 0
v 0 -22 0
v -1 -22 0
v -1 -21 0
v 0 -21 0
v -2 -22 0
v -3 -22 0
v -3 -21 0
v -2 -21 0
v -3 -22 0
v -4 -22 0
v -4 -21 0
v -3 -21 0
v -4 -22 0
v -5 -22 0
v -5 -21 0
v -4 -21 0
v -5 -22 0
v -6 -22 0
v -6 -21 0
v -5 -21 0
v -6 -22 0
v -7 -22 0
v -7 -21 0
v -6 -21 0
v -7 -22 0
v -8 -22 0
v -8 -21 0
v -7 -21 0
v -18 -22 0
v -19 -22 0
v -19 -21 0
v -18 -21 0
v -24 -22 0
v -25 -22 0
v -25 -21 0
v -24 -21 0
v 0 -23 0
v -1 -23 0
v -1 -22 0
v 0 -22 0
v -2 -23 0
v -3 -23 0
v -3 -22 0
v -2 -22 0
v -3 -23 0
v -4 -23 0
v -4 -22 0
v -3 -22 0
v -4 -23 0
v -5 -23 0
v -5 -22 0
v -4 -22 0
v -5 -23 0
v -6 -23 0
v -6 -22 0
v -5 -22 0
v -6 -23 0
v -7 -23 0
v -7 -22 0
v -6 -22 0
v -20 -23 0
v -21 -23 0
v -21 -22 0
v -20 -22 0
v -21 -23 0
v -22 -23 0
v -22 -22 0
v -21 -22 0
v -22 -23 0
v -23 -23 0
v -23 -22 0
v -22 -22 0
v -24 -23 0
v -25 -23 0
v -25 -22 0
v -24 -22 0
v 0 -24 0
v -1 -24 0
v -1 -23 0
v 0 -23 0
v -4 -24 0
v -5 -24 0
v -5 -23 0
v -4 -23 0
v -5 -24 0
v -6 -24 0
v -6 -23 0
v -5 -23 0
v -6 -24 0
v -7 -24 0
v -7 -23 0
v -6 -23 0
v -21 -24 0
v -22 -24 0
v -22 -23 0
v -21 -23 0
v -22 -24 0
v -23 -24 0
v -23 -23 0
v -22 -23 0
v -23 -24 0
v -24 -24 0
v -24 -23 0
v -23 -23 0
v -24 -24 0
v -25 -24 0
v -25 -23 0
v -24 -23 0
v 0 -25 0
v -1 -25 0
v -1 -24 0
v 0 -24 0
v -1 -25 0
v -2 -25 0
v -2 -24 0
v -1 -24 0
v -2 -25 0
v -3 -25 0
v -3 -24 0
v -2 -24 0
v -3 -25 0
v -4 -25 0
v -4 -24 0
v -3 -24 0
v -4 -25 0
v -5 -25 0
v -5 -24 0
v -4 -24 0
v -5 -25 0
v -6 -25 0
v -6 -24 0
v -5 -24 0
v -6 -25 0
v -7 -25 0
v -7 -24 0
v -6 -24 0
v -7 -25 0
v -8 -25 0
v -8 -24 0
v -7 -24 0
v -8 -25 0
v -9 -25 0
v -9 -24 0
v -8 -24 0
v -9 -25 0
v -10 -25 0
v -10 -24 0
v -9 -24 0
v -13 -25 0
v -14 -25 0
v -14 -24 0
v -13 -24 0
v -14 -25 0
v -15 -25 0
v -15 -24 0
v -14 -24 0
v -15 -25 0
v -16 -25 0
v -16 -24 0
v -15 -24 0
v -16 -25 0
v -17 -25 0
v -17 -24 0
v -16 -24 0
v -17 -25 0
v -18 -25 0
v -18 -24 0
v -17 -24 0
v -18 -25 0
v -19 -25 0
v -19 -24 0
v -18 -24 0
v -19 -25 0
v -20 -25 0
v -20 -24 0
v -19 -24 0
v -20 -25 0
v -21 -25 0
v -21 -24 0
v -20 -24 0
v -21 -25 0
v -22 -25 0
v -22 -24 0
v -21 -24 0
v -22 -25 0
v -23 -25 0
v -23 -24 0
v -22 -24 0
v -23 -25 0
v -24 -25 0
v -24 -24 0
v -23 -24 0
v -24 -25 0
v -25 -25 0
v -25 -24 0
v -24 -24 0

# Texture cooridinates (Count = 120)
vt 0.1 0.6666666
vt 0.125 0.6666666
vt 0.125 0.6944444
vt 0.1 0.6944444
vt 0.15 0.6666666
vt 0.15 0.6944444
vt 0.175 0.6666666
vt 0.175 0.6944444
vt 0.1 0.6388889
vt 0.125 0.6388889
vt 0.15 0.6388889
vt 0.175 0.6388889
vt 0.1 0.6111111
vt 0.125 0.6111111
vt 0.15 0.6111111
vt 0.2 0.6666666
vt 0.2 0.6944444
vt 0.175 0.6111111
vt 0.1 0.5833334
vt 0.125 0.5833334
vt 0.2 0.6388889
vt 0.15 0.5833334
vt 0.225 0.6666666
vt 0.225 0.6944444
vt 0.175 0.5833334
vt 0.15 0.5277778
vt 0.175 0.5277778
vt 0.175 0.5555556
vt 0.15 0.5555556
vt 0.7 0.9166667
vt 0.725 0.9166667
vt 0.725 0.9444444
vt 0.7 0.9444444
vt 0.125 0.5277778
vt 0.125 0.5555556
vt 0.175 0.4722222
vt 0.2 0.4722222
vt 0.2 0.5
vt 0.175 0.5
vt 0.15 0.4722222
vt 0.15 0.5
vt 0.275 0.1944444
vt 0.3 0.1944444
vt 0.3 0.2222222
vt 0.275 0.2222222
vt 0.325 0.1944444
vt 0.325 0.2222222
vt 0.075 0.6666666
vt 0.075 0.6944444
vt 0.325 0.75
vt 0.35 0.75
vt 0.35 0.7777778
vt 0.325 0.7777778
vt 0.375 0.75
vt 0.375 0.7777778
vt 0.075 0.9722222
vt 0.1 0.9722222
vt 0.1 1
vt 0.075 1
vt 0.825 0.9722222
vt 0.85 0.9722222
vt 0.85 1
vt 0.825 1
vt 0.325 0.7222222
vt 0.35 0.7222222
vt 0.375 0.7222222
vt 0.825 0.9444444
vt 0.85 0.9444444
vt 0.125 0.9722222
vt 0.15 0.9722222
vt 0.15 1
vt 0.125 1
vt 0.275 0.7777778
vt 0.3 0.7777778
vt 0.3 0.8055556
vt 0.275 0.8055556
vt 0.325 0.8055556
vt 0.275 0.75
vt 0.3 0.75
vt 0.05 0.9722222
vt 0.05 1
vt 0.05 0.6388889
vt 0.075 0.6388889
vt 0.05 0.6666666
vt 0.925 0.9444444
vt 0.95 0.9444444
vt 0.95 0.9722222
vt 0.925 0.9722222
vt 0.975 0.9444444
vt 0.975 0.9722222
vt 0.125 0.5
vt 0.35 0.1666667
vt 0.375 0.1666667
vt 0.375 0.1944444
vt 0.35 0.1944444
vt 0.4 0.1666667
vt 0.4 0.1944444
vt 0.425 0.1666667
vt 0.425 0.1944444
vt 0.375 0.05555558
vt 0.4 0.05555558
vt 0.4 0.08333331
vt 0.375 0.08333331
vt 0.375 0.1388889
vt 0.4 0.1388889
vt 0.35 0.1388889
vt 0.35 0.1111111
vt 0.375 0.1111111
vt 0.4 0.1111111
vt 0.075 0.8333333
vt 0.1 0.8333333
vt 0.1 0.8611111
vt 0.075 0.8611111
vt 0.125 0.8333333
vt 0.125 0.8611111
vt 0.15 0.8333333
vt 0.15 0.8611111
vt 0.2 0.5277778
vt 0.125 0.4722222
vt 0.2 0.5555556

# Normal
vn 0 0 -1

# Mesh description
g Fields_mesh_0002

# Faces
f 1/1/1 2/2/1 3/3/1 4/4/1
f 5/2/1 6/5/1 7/6/1 8/3/1
f 9/2/1 10/5/1 11/6/1 12/3/1
f 13/2/1 14/5/1 15/6/1 16/3/1
f 17/2/1 18/5/1 19/6/1 20/3/1
f 21/2/1 22/5/1 23/6/1 24/3/1
f 25/2/1 26/5/1 27/6/1 28/3/1
f 29/5/1 30/7/1 31/8/1 32/6/1
f 33/1/1 34/2/1 35/3/1 36/4/1
f 37/2/1 38/5/1 39/6/1 40/3/1
f 41/2/1 42/5/1 43/6/1 44/3/1
f 45/2/1 46/5/1 47/6/1 48/3/1
f 49/2/1 50/5/1 51/6/1 52/3/1
f 53/2/1 54/5/1 55/6/1 56/3/1
f 57/2/1 58/5/1 59/6/1 60/3/1
f 61/5/1 62/7/1 63/8/1 64/6/1
f 65/9/1 66/10/1 67/2/1 68/1/1
f 69/10/1 70/11/1 71/5/1 72/2/1
f 73/10/1 74/11/1 75/5/1 76/2/1
f 77/10/1 78/11/1 79/5/1 80/2/1
f 81/10/1 82/11/1 83/5/1 84/2/1
f 85/10/1 86/11/1 87/5/1 88/2/1
f 89/10/1 90/11/1 91/5/1 92/2/1
f 93/11/1 94/12/1 95/7/1 96/5/1
f 97/9/1 98/10/1 99/2/1 100/1/1
f 101/10/1 102/11/1 103/5/1 104/2/1
f 105/10/1 106/11/1 107/5/1 108/2/1
f 109/10/1 110/11/1 111/5/1 112/2/1
f 113/10/1 114/11/1 115/5/1 116/2/1
f 117/10/1 118/11/1 119/5/1 120/2/1
f 121/10/1 122/11/1 123/5/1 124/2/1
f 125/11/1 126/12/1 127/7/1 128/5/1
f 129/13/1 130/14/1 131/10/1 132/9/1
f 133/14/1 134/15/1 135/11/1 136/10/1
f 137/7/1 138/16/1 139/17/1 140/8/1
f 141/14/1 142/15/1 143/11/1 144/10/1
f 145/14/1 146/15/1 147/11/1 148/10/1
f 149/14/1 150/15/1 151/11/1 152/10/1
f 153/14/1 154/15/1 155/11/1 156/10/1
f 157/15/1 158/18/1 159/12/1 160/11/1
f 161/13/1 162/14/1 163/10/1 164/9/1
f 165/14/1 166/15/1 167/11/1 168/10/1
f 169/14/1 170/15/1 171/11/1 172/10/1
f 173/14/1 174/15/1 175/11/1 176/10/1
f 177/14/1 178/15/1 179/11/1 180/10/1
f 181/14/1 182/15/1 183/11/1 184/10/1
f 185/14/1 186/15/1 187/11/1 188/10/1
f 189/15/1 190/18/1 191/12/1 192/11/1
f 193/19/1 194/20/1 195/14/1 196/13/1
f 197/11/1 198/12/1 199/7/1 200/5/1
f 201/12/1 202/21/1 203/16/1 204/7/1
f 205/20/1 206/22/1 207/15/1 208/14/1
f 209/20/1 210/22/1 211/15/1 212/14/1
f 213/20/1 214/22/1 215/15/1 216/14/1
f 217/16/1 218/23/1 219/24/1 220/17/1
f 221/22/1 222/25/1 223/18/1 224/15/1
f 225/19/1 226/20/1 227/14/1 228/13/1
f 229/20/1 230/22/1 231/15/1 232/14/1
f 233/20/1 234/22/1 235/15/1 236/14/1
f 237/20/1 238/22/1 239/15/1 240/14/1
f 241/20/1 242/22/1 243/15/1 244/14/1
f 245/20/1 246/22/1 247/15/1 248/14/1
f 249/20/1 250/22/1 251/15/1 252/14/1
f 253/22/1 254/25/1 255/18/1 256/15/1
f 257/26/1 258/27/1 259/28/1 260/29/1
f 261/30/1 262/31/1 263/32/1 264/33/1
f 265/34/1 266/26/1 267/29/1 268/35/1
f 269/36/1 270/37/1 271/38/1 272/39/1
f 273/40/1 274/36/1 275/39/1 276/41/1
f 277/36/1 278/37/1 279/38/1 280/39/1
f 281/42/1 282/43/1 283/44/1 284/45/1
f 285/43/1 286/46/1 287/47/1 288/44/1
f 289/48/1 290/1/1 291/4/1 292/49/1
f 293/40/1 294/36/1 295/39/1 296/41/1
f 297/36/1 298/37/1 299/38/1 300/39/1
f 301/50/1 302/51/1 303/52/1 304/53/1
f 305/51/1 306/54/1 307/55/1 308/52/1
f 309/56/1 310/57/1 311/58/1 312/59/1
f 313/40/1 314/36/1 315/39/1 316/41/1
f 317/36/1 318/37/1 319/38/1 320/39/1
f 321/60/1 322/61/1 323/62/1 324/63/1
f 325/64/1 326/65/1 327/51/1 328/50/1
f 329/65/1 330/66/1 331/54/1 332/51/1
f 333/40/1 334/36/1 335/39/1 336/41/1
f 337/36/1 338/37/1 339/38/1 340/39/1
f 341/60/1 342/61/1 343/62/1 344/63/1
f 345/67/1 346/68/1 347/61/1 348/60/1
f 349/69/1 350/70/1 351/71/1 352/72/1
f 353/40/1 354/36/1 355/39/1 356/41/1
f 357/36/1 358/37/1 359/38/1 360/39/1
f 361/67/1 362/68/1 363/61/1 364/60/1
f 365/73/1 366/74/1 367/75/1 368/76/1
f 369/74/1 370/53/1 371/77/1 372/75/1
f 373/40/1 374/36/1 375/39/1 376/41/1
f 377/36/1 378/37/1 379/38/1 380/39/1
f 381/78/1 382/79/1 383/74/1 384/73/1
f 385/79/1 386/50/1 387/53/1 388/74/1
f 389/40/1 390/36/1 391/39/1 392/41/1
f 393/36/1 394/37/1 395/38/1 396/39/1
f 397/80/1 398/56/1 399/59/1 400/81/1
f 401/40/1 402/36/1 403/39/1 404/41/1
f 405/36/1 406/37/1 407/38/1 408/39/1
f 409/40/1 410/36/1 411/39/1 412/41/1
f 413/36/1 414/37/1 415/38/1 416/39/1
f 417/82/1 418/83/1 419/48/1 420/84/1
f 421/40/1 422/36/1 423/39/1 424/41/1
f 425/36/1 426/37/1 427/38/1 428/39/1
f 429/85/1 430/86/1 431/87/1 432/88/1
f 433/86/1 434/89/1 435/90/1 436/87/1
f 437/40/1 438/36/1 439/39/1 440/41/1
f 441/36/1 442/37/1 443/38/1 444/39/1
f 445/91/1 446/41/1 447/26/1 448/34/1
f 449/36/1 450/37/1 451/38/1 452/39/1
f 453/92/1 454/93/1 455/94/1 456/95/1
f 457/93/1 458/96/1 459/97/1 460/94/1
f 461/93/1 462/96/1 463/97/1 464/94/1
f 465/93/1 466/96/1 467/97/1 468/94/1
f 469/93/1 470/96/1 471/97/1 472/94/1
f 473/93/1 474/96/1 475/97/1 476/94/1
f 477/93/1 478/96/1 479/97/1 480/94/1
f 481/96/1 482/98/1 483/99/1 484/97/1
f 485/82/1 486/83/1 487/48/1 488/84/1
f 489/36/1 490/37/1 491/38/1 492/39/1
f 493/92/1 494/93/1 495/94/1 496/95/1
f 497/100/1 498/101/1 499/102/1 500/103/1
f 501/104/1 502/105/1 503/96/1 504/93/1
f 505/104/1 506/105/1 507/96/1 508/93/1
f 509/104/1 510/105/1 511/96/1 512/93/1
f 513/104/1 514/105/1 515/96/1 516/93/1
f 517/104/1 518/105/1 519/96/1 520/93/1
f 521/104/1 522/105/1 523/96/1 524/93/1
f 525/34/1 526/26/1 527/29/1 528/35/1
f 529/36/1 530/37/1 531/38/1 532/39/1
f 533/106/1 534/104/1 535/93/1 536/92/1
f 537/104/1 538/105/1 539/96/1 540/93/1
f 541/104/1 542/105/1 543/96/1 544/93/1
f 545/104/1 546/105/1 547/96/1 548/93/1
f 549/104/1 550/105/1 551/96/1 552/93/1
f 553/104/1 554/105/1 555/96/1 556/93/1
f 557/104/1 558/105/1 559/96/1 560/93/1
f 561/104/1 562/105/1 563/96/1 564/93/1
f 565/40/1 566/36/1 567/39/1 568/41/1
f 569/36/1 570/37/1 571/38/1 572/39/1
f 573/106/1 574/104/1 575/93/1 576/92/1
f 577/104/1 578/105/1 579/96/1 580/93/1
f 581/104/1 582/105/1 583/96/1 584/93/1
f 585/104/1 586/105/1 587/96/1 588/93/1
f 589/104/1 590/105/1 591/96/1 592/93/1
f 593/104/1 594/105/1 595/96/1 596/93/1
f 597/104/1 598/105/1 599/96/1 600/93/1
f 601/40/1 602/36/1 603/39/1 604/41/1
f 605/36/1 606/37/1 607/38/1 608/39/1
f 609/106/1 610/104/1 611/93/1 612/92/1
f 613/104/1 614/105/1 615/96/1 616/93/1
f 617/104/1 618/105/1 619/96/1 620/93/1
f 621/104/1 622/105/1 623/96/1 624/93/1
f 625/104/1 626/105/1 627/96/1 628/93/1
f 629/104/1 630/105/1 631/96/1 632/93/1
f 633/48/1 634/1/1 635/4/1 636/49/1
f 637/40/1 638/36/1 639/39/1 640/41/1
f 641/36/1 642/37/1 643/38/1 644/39/1
f 645/107/1 646/108/1 647/104/1 648/106/1
f 649/103/1 650/102/1 651/109/1 652/108/1
f 653/104/1 654/105/1 655/96/1 656/93/1
f 657/104/1 658/105/1 659/96/1 660/93/1
f 661/104/1 662/105/1 663/96/1 664/93/1
f 665/110/1 666/111/1 667/112/1 668/113/1
f 669/111/1 670/114/1 671/115/1 672/112/1
f 673/114/1 674/116/1 675/117/1 676/115/1
f 677/40/1 678/36/1 679/39/1 680/41/1
f 681/36/1 682/37/1 683/38/1 684/39/1
f 685/108/1 686/109/1 687/105/1 688/104/1
f 689/108/1 690/109/1 691/105/1 692/104/1
f 693/108/1 694/109/1 695/105/1 696/104/1
f 697/110/1 698/111/1 699/112/1 700/113/1
f 701/111/1 702/114/1 703/115/1 704/112/1
f 705/114/1 706/116/1 707/117/1 708/115/1
f 709/40/1 710/36/1 711/39/1 712/41/1
f 713/39/1 714/38/1 715/118/1 716/27/1
f 717/119/1 718/40/1 719/41/1 720/91/1
f 721/119/1 722/40/1 723/41/1 724/91/1
f 725/119/1 726/40/1 727/41/1 728/91/1
f 729/119/1 730/40/1 731/41/1 732/91/1
f 733/119/1 734/40/1 735/41/1 736/91/1
f 737/119/1 738/40/1 739/41/1 740/91/1
f 741/119/1 742/40/1 743/41/1 744/91/1
f 745/119/1 746/40/1 747/41/1 748/91/1
f 749/26/1 750/27/1 751/28/1 752/29/1
f 753/34/1 754/26/1 755/29/1 756/35/1
f 757/119/1 758/40/1 759/41/1 760/91/1
f 761/119/1 762/40/1 763/41/1 764/91/1
f 765/119/1 766/40/1 767/41/1 768/91/1
f 769/119/1 770/40/1 771/41/1 772/91/1
f 773/119/1 774/40/1 775/41/1 776/91/1
f 777/119/1 778/40/1 779/41/1 780/91/1
f 781/119/1 782/40/1 783/41/1 784/91/1
f 785/119/1 786/40/1 787/41/1 788/91/1
f 789/119/1 790/40/1 791/41/1 792/91/1
f 793/119/1 794/40/1 795/41/1 796/91/1
f 797/27/1 798/118/1 799/120/1 800/28/1

