# Tiled2Unity generated file. Do not modify by hand.
# Wavefront file for 'Fields_mesh_0002.obj'

# Vertices (Count = 800)
v 0 -1 0
v -1 -1 0
v -1 0 0
v 0 0 0
v -1 -1 0
v -2 -1 0
v -2 0 0
v -1 0 0
v -2 -1 0
v -3 -1 0
v -3 0 0
v -2 0 0
v -3 -1 0
v -4 -1 0
v -4 0 0
v -3 0 0
v -4 -1 0
v -5 -1 0
v -5 0 0
v -4 0 0
v -5 -1 0
v -6 -1 0
v -6 0 0
v -5 0 0
v -6 -1 0
v -7 -1 0
v -7 0 0
v -6 0 0
v -7 -1 0
v -8 -1 0
v -8 0 0
v -7 0 0
v -17 -1 0
v -18 -1 0
v -18 0 0
v -17 0 0
v -18 -1 0
v -19 -1 0
v -19 0 0
v -18 0 0
v -19 -1 0
v -20 -1 0
v -20 0 0
v -19 0 0
v -20 -1 0
v -21 -1 0
v -21 0 0
v -20 0 0
v -21 -1 0
v -22 -1 0
v -22 0 0
v -21 0 0
v -22 -1 0
v -23 -1 0
v -23 0 0
v -22 0 0
v -23 -1 0
v -24 -1 0
v -24 0 0
v -23 0 0
v -24 -1 0
v -25 -1 0
v -25 0 0
v -24 0 0
v 0 -2 0
v -1 -2 0
v -1 -1 0
v 0 -1 0
v -1 -2 0
v -2 -2 0
v -2 -1 0
v -1 -1 0
v -2 -2 0
v -3 -2 0
v -3 -1 0
v -2 -1 0
v -3 -2 0
v -4 -2 0
v -4 -1 0
v -3 -1 0
v -4 -2 0
v -5 -2 0
v -5 -1 0
v -4 -1 0
v -5 -2 0
v -6 -2 0
v -6 -1 0
v -5 -1 0
v -6 -2 0
v -7 -2 0
v -7 -1 0
v -6 -1 0
v -7 -2 0
v -8 -2 0
v -8 -1 0
v -7 -1 0
v -17 -2 0
v -18 -2 0
v -18 -1 0
v -17 -1 0
v -18 -2 0
v -19 -2 0
v -19 -1 0
v -18 -1 0
v -19 -2 0
v -20 -2 0
v -20 -1 0
v -19 -1 0
v -20 -2 0
v -21 -2 0
v -21 -1 0
v -20 -1 0
v -21 -2 0
v -22 -2 0
v -22 -1 0
v -21 -1 0
v -22 -2 0
v -23 -2 0
v -23 -1 0
v -22 -1 0
v -23 -2 0
v -24 -2 0
v -24 -1 0
v -23 -1 0
v -24 -2 0
v -25 -2 0
v -25 -1 0
v -24 -1 0
v 0 -3 0
v -1 -3 0
v -1 -2 0
v 0 -2 0
v -1 -3 0
v -2 -3 0
v -2 -2 0
v -1 -2 0
v -2 -3 0
v -3 -3 0
v -3 -2 0
v -2 -2 0
v -3 -3 0
v -4 -3 0
v -4 -2 0
v -3 -2 0
v -4 -3 0
v -5 -3 0
v -5 -2 0
v -4 -2 0
v -5 -3 0
v -6 -3 0
v -6 -2 0
v -5 -2 0
v -6 -3 0
v -7 -3 0
v -7 -2 0
v -6 -2 0
v -7 -3 0
v -8 -3 0
v -8 -2 0
v -7 -2 0
v -17 -3 0
v -18 -3 0
v -18 -2 0
v -17 -2 0
v -18 -3 0
v -19 -3 0
v -19 -2 0
v -18 -2 0
v -19 -3 0
v -20 -3 0
v -20 -2 0
v -19 -2 0
v -20 -3 0
v -21 -3 0
v -21 -2 0
v -20 -2 0
v -21 -3 0
v -22 -3 0
v -22 -2 0
v -21 -2 0
v -22 -3 0
v -23 -3 0
v -23 -2 0
v -22 -2 0
v -23 -3 0
v -24 -3 0
v -24 -2 0
v -23 -2 0
v -24 -3 0
v -25 -3 0
v -25 -2 0
v -24 -2 0
v 0 -4 0
v -1 -4 0
v -1 -3 0
v 0 -3 0
v -1 -4 0
v -2 -4 0
v -2 -3 0
v -1 -3 0
v -2 -4 0
v -3 -4 0
v -3 -3 0
v -2 -3 0
v -3 -4 0
v -4 -4 0
v -4 -3 0
v -3 -3 0
v -4 -4 0
v -5 -4 0
v -5 -3 0
v -4 -3 0
v -5 -4 0
v -6 -4 0
v -6 -3 0
v -5 -3 0
v -6 -4 0
v -7 -4 0
v -7 -3 0
v -6 -3 0
v -7 -4 0
v -8 -4 0
v -8 -3 0
v -7 -3 0
v -17 -4 0
v -18 -4 0
v -18 -3 0
v -17 -3 0
v -18 -4 0
v -19 -4 0
v -19 -3 0
v -18 -3 0
v -19 -4 0
v -20 -4 0
v -20 -3 0
v -19 -3 0
v -20 -4 0
v -21 -4 0
v -21 -3 0
v -20 -3 0
v -21 -4 0
v -22 -4 0
v -22 -3 0
v -21 -3 0
v -22 -4 0
v -23 -4 0
v -23 -3 0
v -22 -3 0
v -23 -4 0
v -24 -4 0
v -24 -3 0
v -23 -3 0
v -24 -4 0
v -25 -4 0
v -25 -3 0
v -24 -3 0
v 0 -5 0
v -1 -5 0
v -1 -4 0
v 0 -4 0
v -17 -5 0
v -18 -5 0
v -18 -4 0
v -17 -4 0
v -24 -5 0
v -25 -5 0
v -25 -4 0
v -24 -4 0
v 0 -6 0
v -1 -6 0
v -1 -5 0
v 0 -5 0
v -24 -6 0
v -25 -6 0
v -25 -5 0
v -24 -5 0
v 0 -7 0
v -1 -7 0
v -1 -6 0
v 0 -6 0
v -2 -7 0
v -3 -7 0
v -3 -6 0
v -2 -6 0
v -3 -7 0
v -4 -7 0
v -4 -6 0
v -3 -6 0
v -22 -7 0
v -23 -7 0
v -23 -6 0
v -22 -6 0
v -24 -7 0
v -25 -7 0
v -25 -6 0
v -24 -6 0
v 0 -8 0
v -1 -8 0
v -1 -7 0
v 0 -7 0
v -9 -8 0
v -10 -8 0
v -10 -7 0
v -9 -7 0
v -10 -8 0
v -11 -8 0
v -11 -7 0
v -10 -7 0
v -15 -8 0
v -16 -8 0
v -16 -7 0
v -15 -7 0
v -24 -8 0
v -25 -8 0
v -25 -7 0
v -24 -7 0
v 0 -9 0
v -1 -9 0
v -1 -8 0
v 0 -8 0
v -2 -9 0
v -3 -9 0
v -3 -8 0
v -2 -8 0
v -9 -9 0
v -10 -9 0
v -10 -8 0
v -9 -8 0
v -10 -9 0
v -11 -9 0
v -11 -8 0
v -10 -8 0
v -24 -9 0
v -25 -9 0
v -25 -8 0
v -24 -8 0
v 0 -10 0
v -1 -10 0
v -1 -9 0
v 0 -9 0
v -1 -10 0
v -2 -10 0
v -2 -9 0
v -1 -9 0
v -2 -10 0
v -3 -10 0
v -3 -9 0
v -2 -9 0
v -7 -10 0
v -8 -10 0
v -8 -9 0
v -7 -9 0
v -24 -10 0
v -25 -10 0
v -25 -9 0
v -24 -9 0
v 0 -11 0
v -1 -11 0
v -1 -10 0
v 0 -10 0
v -1 -11 0
v -2 -11 0
v -2 -10 0
v -1 -10 0
v -14 -11 0
v -15 -11 0
v -15 -10 0
v -14 -10 0
v -15 -11 0
v -16 -11 0
v -16 -10 0
v -15 -10 0
v -24 -11 0
v -25 -11 0
v -25 -10 0
v -24 -10 0
v 0 -12 0
v -1 -12 0
v -1 -11 0
v 0 -11 0
v -14 -12 0
v -15 -12 0
v -15 -11 0
v -14 -11 0
v -15 -12 0
v -16 -12 0
v -16 -11 0
v -15 -11 0
v -24 -12 0
v -25 -12 0
v -25 -11 0
v -24 -11 0
v 0 -13 0
v -1 -13 0
v -1 -12 0
v 0 -12 0
v -13 -13 0
v -14 -13 0
v -14 -12 0
v -13 -12 0
v -24 -13 0
v -25 -13 0
v -25 -12 0
v -24 -12 0
v 0 -14 0
v -1 -14 0
v -1 -13 0
v 0 -13 0
v -24 -14 0
v -25 -14 0
v -25 -13 0
v -24 -13 0
v 0 -15 0
v -1 -15 0
v -1 -14 0
v 0 -14 0
v -4 -15 0
v -5 -15 0
v -5 -14 0
v -4 -14 0
v -24 -15 0
v -25 -15 0
v -25 -14 0
v -24 -14 0
v 0 -16 0
v -1 -16 0
v -1 -15 0
v 0 -15 0
v -3 -16 0
v -4 -16 0
v -4 -15 0
v -3 -15 0
v -4 -16 0
v -5 -16 0
v -5 -15 0
v -4 -15 0
v -24 -16 0
v -25 -16 0
v -25 -15 0
v -24 -15 0
v 0 -17 0
v -1 -17 0
v -1 -16 0
v 0 -16 0
v -24 -17 0
v -25 -17 0
v -25 -16 0
v -24 -16 0
v 0 -18 0
v -1 -18 0
v -1 -17 0
v 0 -17 0
v -3 -18 0
v -4 -18 0
v -4 -17 0
v -3 -17 0
v -4 -18 0
v -5 -18 0
v -5 -17 0
v -4 -17 0
v -5 -18 0
v -6 -18 0
v -6 -17 0
v -5 -17 0
v -6 -18 0
v -7 -18 0
v -7 -17 0
v -6 -17 0
v -7 -18 0
v -8 -18 0
v -8 -17 0
v -7 -17 0
v -8 -18 0
v -9 -18 0
v -9 -17 0
v -8 -17 0
v -9 -18 0
v -10 -18 0
v -10 -17 0
v -9 -17 0
v -10 -18 0
v -11 -18 0
v -11 -17 0
v -10 -17 0
v -14 -18 0
v -15 -18 0
v -15 -17 0
v -14 -17 0
v 0 -19 0
v -1 -19 0
v -1 -18 0
v 0 -18 0
v -2 -19 0
v -3 -19 0
v -3 -18 0
v -2 -18 0
v -3 -19 0
v -4 -19 0
v -4 -18 0
v -3 -18 0
v -4 -19 0
v -5 -19 0
v -5 -18 0
v -4 -18 0
v -5 -19 0
v -6 -19 0
v -6 -18 0
v -5 -18 0
v -6 -19 0
v -7 -19 0
v -7 -18 0
v -6 -18 0
v -7 -19 0
v -8 -19 0
v -8 -18 0
v -7 -18 0
v -8 -19 0
v -9 -19 0
v -9 -18 0
v -8 -18 0
v -9 -19 0
v -10 -19 0
v -10 -18 0
v -9 -18 0
v -24 -19 0
v -25 -19 0
v -25 -18 0
v -24 -18 0
v 0 -20 0
v -1 -20 0
v -1 -19 0
v 0 -19 0
v -2 -20 0
v -3 -20 0
v -3 -19 0
v -2 -19 0
v -3 -20 0
v -4 -20 0
v -4 -19 0
v -3 -19 0
v -4 -20 0
v -5 -20 0
v -5 -19 0
v -4 -19 0
v -5 -20 0
v -6 -20 0
v -6 -19 0
v -5 -19 0
v -6 -20 0
v -7 -20 0
v -7 -19 0
v -6 -19 0
v -7 -20 0
v -8 -20 0
v -8 -19 0
v -7 -19 0
v -8 -20 0
v -9 -20 0
v -9 -19 0
v -8 -19 0
v -9 -20 0
v -10 -20 0
v -10 -19 0
v -9 -19 0
v -24 -20 0
v -25 -20 0
v -25 -19 0
v -24 -19 0
v 0 -21 0
v -1 -21 0
v -1 -20 0
v 0 -20 0
v -2 -21 0
v -3 -21 0
v -3 -20 0
v -2 -20 0
v -3 -21 0
v -4 -21 0
v -4 -20 0
v -3 -20 0
v -4 -21 0
v -5 -21 0
v -5 -20 0
v -4 -20 0
v -5 -21 0
v -6 -21 0
v -6 -20 0
v -5 -20 0
v -6 -21 0
v -7 -21 0
v -7 -20 0
v -6 -20 0
v -7 -21 0
v -8 -21 0
v -8 -20 0
v -7 -20 0
v -8 -21 0
v -9 -21 0
v -9 -20 0
v -8 -20 0
v -24 -21 0
v -25 -21 0
v -25 -20 0
v -24 -20 0
v 0 -22 0
v -1 -22 0
v -1 -21 0
v 0 -21 0
v -2 -22 0
v -3 -22 0
v -3 -21 0
v -2 -21 0
v -3 -22 0
v -4 -22 0
v -4 -21 0
v -3 -21 0
v -4 -22 0
v -5 -22 0
v -5 -21 0
v -4 -21 0
v -5 -22 0
v -6 -22 0
v -6 -21 0
v -5 -21 0
v -6 -22 0
v -7 -22 0
v -7 -21 0
v -6 -21 0
v -7 -22 0
v -8 -22 0
v -8 -21 0
v -7 -21 0
v -18 -22 0
v -19 -22 0
v -19 -21 0
v -18 -21 0
v -24 -22 0
v -25 -22 0
v -25 -21 0
v -24 -21 0
v 0 -23 0
v -1 -23 0
v -1 -22 0
v 0 -22 0
v -2 -23 0
v -3 -23 0
v -3 -22 0
v -2 -22 0
v -3 -23 0
v -4 -23 0
v -4 -22 0
v -3 -22 0
v -4 -23 0
v -5 -23 0
v -5 -22 0
v -4 -22 0
v -5 -23 0
v -6 -23 0
v -6 -22 0
v -5 -22 0
v -6 -23 0
v -7 -23 0
v -7 -22 0
v -6 -22 0
v -20 -23 0
v -21 -23 0
v -21 -22 0
v -20 -22 0
v -21 -23 0
v -22 -23 0
v -22 -22 0
v -21 -22 0
v -22 -23 0
v -23 -23 0
v -23 -22 0
v -22 -22 0
v -24 -23 0
v -25 -23 0
v -25 -22 0
v -24 -22 0
v 0 -24 0
v -1 -24 0
v -1 -23 0
v 0 -23 0
v -4 -24 0
v -5 -24 0
v -5 -23 0
v -4 -23 0
v -5 -24 0
v -6 -24 0
v -6 -23 0
v -5 -23 0
v -6 -24 0
v -7 -24 0
v -7 -23 0
v -6 -23 0
v -21 -24 0
v -22 -24 0
v -22 -23 0
v -21 -23 0
v -22 -24 0
v -23 -24 0
v -23 -23 0
v -22 -23 0
v -23 -24 0
v -24 -24 0
v -24 -23 0
v -23 -23 0
v -24 -24 0
v -25 -24 0
v -25 -23 0
v -24 -23 0
v 0 -25 0
v -1 -25 0
v -1 -24 0
v 0 -24 0
v -1 -25 0
v -2 -25 0
v -2 -24 0
v -1 -24 0
v -2 -25 0
v -3 -25 0
v -3 -24 0
v -2 -24 0
v -3 -25 0
v -4 -25 0
v -4 -24 0
v -3 -24 0
v -4 -25 0
v -5 -25 0
v -5 -24 0
v -4 -24 0
v -5 -25 0
v -6 -25 0
v -6 -24 0
v -5 -24 0
v -6 -25 0
v -7 -25 0
v -7 -24 0
v -6 -24 0
v -7 -25 0
v -8 -25 0
v -8 -24 0
v -7 -24 0
v -8 -25 0
v -9 -25 0
v -9 -24 0
v -8 -24 0
v -9 -25 0
v -10 -25 0
v -10 -24 0
v -9 -24 0
v -13 -25 0
v -14 -25 0
v -14 -24 0
v -13 -24 0
v -14 -25 0
v -15 -25 0
v -15 -24 0
v -14 -24 0
v -15 -25 0
v -16 -25 0
v -16 -24 0
v -15 -24 0
v -16 -25 0
v -17 -25 0
v -17 -24 0
v -16 -24 0
v -17 -25 0
v -18 -25 0
v -18 -24 0
v -17 -24 0
v -18 -25 0
v -19 -25 0
v -19 -24 0
v -18 -24 0
v -19 -25 0
v -20 -25 0
v -20 -24 0
v -19 -24 0
v -20 -25 0
v -21 -25 0
v -21 -24 0
v -20 -24 0
v -21 -25 0
v -22 -25 0
v -22 -24 0
v -21 -24 0
v -22 -25 0
v -23 -25 0
v -23 -24 0
v -22 -24 0
v -23 -25 0
v -24 -25 0
v -24 -24 0
v -23 -24 0
v -24 -25 0
v -25 -25 0
v -25 -24 0
v -24 -24 0

# Texture cooridinates (Count = 115)
vt 0.1 0.6666666
vt 0.125 0.6666666
vt 0.125 0.6944444
vt 0.1 0.6944444
vt 0.15 0.6666666
vt 0.15 0.6944444
vt 0.175 0.6666666
vt 0.175 0.6944444
vt 0.1 0.6388889
vt 0.125 0.6388889
vt 0.15 0.6388889
vt 0.175 0.6388889
vt 0.1 0.6111111
vt 0.125 0.6111111
vt 0.15 0.6111111
vt 0.175 0.6111111
vt 0.1 0.5833334
vt 0.125 0.5833334
vt 0.15 0.5833334
vt 0.175 0.5833334
vt 0.15 0.5277778
vt 0.175 0.5277778
vt 0.175 0.5555556
vt 0.15 0.5555556
vt 0.7 0.9166667
vt 0.725 0.9166667
vt 0.725 0.9444444
vt 0.7 0.9444444
vt 0.125 0.5277778
vt 0.125 0.5555556
vt 0.175 0.4722222
vt 0.2 0.4722222
vt 0.2 0.5
vt 0.175 0.5
vt 0.15 0.4722222
vt 0.15 0.5
vt 0.275 0.1944444
vt 0.3 0.1944444
vt 0.3 0.2222222
vt 0.275 0.2222222
vt 0.325 0.1944444
vt 0.325 0.2222222
vt 0.075 0.6666666
vt 0.075 0.6944444
vt 0.325 0.75
vt 0.35 0.75
vt 0.35 0.7777778
vt 0.325 0.7777778
vt 0.375 0.75
vt 0.375 0.7777778
vt 0.075 0.9722222
vt 0.1 0.9722222
vt 0.1 1
vt 0.075 1
vt 0.825 0.9722222
vt 0.85 0.9722222
vt 0.85 1
vt 0.825 1
vt 0.325 0.7222222
vt 0.35 0.7222222
vt 0.375 0.7222222
vt 0.825 0.9444444
vt 0.85 0.9444444
vt 0.125 0.9722222
vt 0.15 0.9722222
vt 0.15 1
vt 0.125 1
vt 0.275 0.7777778
vt 0.3 0.7777778
vt 0.3 0.8055556
vt 0.275 0.8055556
vt 0.325 0.8055556
vt 0.275 0.75
vt 0.3 0.75
vt 0.05 0.9722222
vt 0.05 1
vt 0.05 0.6388889
vt 0.075 0.6388889
vt 0.05 0.6666666
vt 0.925 0.9444444
vt 0.95 0.9444444
vt 0.95 0.9722222
vt 0.925 0.9722222
vt 0.975 0.9444444
vt 0.975 0.9722222
vt 0.125 0.5
vt 0.35 0.1666667
vt 0.375 0.1666667
vt 0.375 0.1944444
vt 0.35 0.1944444
vt 0.4 0.1666667
vt 0.4 0.1944444
vt 0.425 0.1666667
vt 0.425 0.1944444
vt 0.375 0.05555558
vt 0.4 0.05555558
vt 0.4 0.08333331
vt 0.375 0.08333331
vt 0.375 0.1388889
vt 0.4 0.1388889
vt 0.35 0.1388889
vt 0.35 0.1111111
vt 0.375 0.1111111
vt 0.4 0.1111111
vt 0.075 0.8333333
vt 0.1 0.8333333
vt 0.1 0.8611111
vt 0.075 0.8611111
vt 0.125 0.8333333
vt 0.125 0.8611111
vt 0.15 0.8333333
vt 0.15 0.8611111
vt 0.2 0.5277778
vt 0.125 0.4722222
vt 0.2 0.5555556

# Normal
vn 0 0 -1

# Mesh description
g Fields_mesh_0002

# Faces
f 1/1/1 2/2/1 3/3/1 4/4/1
f 5/2/1 6/5/1 7/6/1 8/3/1
f 9/2/1 10/5/1 11/6/1 12/3/1
f 13/2/1 14/5/1 15/6/1 16/3/1
f 17/2/1 18/5/1 19/6/1 20/3/1
f 21/2/1 22/5/1 23/6/1 24/3/1
f 25/2/1 26/5/1 27/6/1 28/3/1
f 29/5/1 30/7/1 31/8/1 32/6/1
f 33/1/1 34/2/1 35/3/1 36/4/1
f 37/2/1 38/5/1 39/6/1 40/3/1
f 41/2/1 42/5/1 43/6/1 44/3/1
f 45/2/1 46/5/1 47/6/1 48/3/1
f 49/2/1 50/5/1 51/6/1 52/3/1
f 53/2/1 54/5/1 55/6/1 56/3/1
f 57/2/1 58/5/1 59/6/1 60/3/1
f 61/5/1 62/7/1 63/8/1 64/6/1
f 65/9/1 66/10/1 67/2/1 68/1/1
f 69/10/1 70/11/1 71/5/1 72/2/1
f 73/10/1 74/11/1 75/5/1 76/2/1
f 77/10/1 78/11/1 79/5/1 80/2/1
f 81/10/1 82/11/1 83/5/1 84/2/1
f 85/10/1 86/11/1 87/5/1 88/2/1
f 89/10/1 90/11/1 91/5/1 92/2/1
f 93/11/1 94/12/1 95/7/1 96/5/1
f 97/9/1 98/10/1 99/2/1 100/1/1
f 101/10/1 102/11/1 103/5/1 104/2/1
f 105/10/1 106/11/1 107/5/1 108/2/1
f 109/10/1 110/11/1 111/5/1 112/2/1
f 113/10/1 114/11/1 115/5/1 116/2/1
f 117/10/1 118/11/1 119/5/1 120/2/1
f 121/10/1 122/11/1 123/5/1 124/2/1
f 125/11/1 126/12/1 127/7/1 128/5/1
f 129/13/1 130/14/1 131/10/1 132/9/1
f 133/14/1 134/15/1 135/11/1 136/10/1
f 137/14/1 138/15/1 139/11/1 140/10/1
f 141/14/1 142/15/1 143/11/1 144/10/1
f 145/14/1 146/15/1 147/11/1 148/10/1
f 149/14/1 150/15/1 151/11/1 152/10/1
f 153/14/1 154/15/1 155/11/1 156/10/1
f 157/15/1 158/16/1 159/12/1 160/11/1
f 161/13/1 162/14/1 163/10/1 164/9/1
f 165/14/1 166/15/1 167/11/1 168/10/1
f 169/14/1 170/15/1 171/11/1 172/10/1
f 173/14/1 174/15/1 175/11/1 176/10/1
f 177/14/1 178/15/1 179/11/1 180/10/1
f 181/14/1 182/15/1 183/11/1 184/10/1
f 185/14/1 186/15/1 187/11/1 188/10/1
f 189/15/1 190/16/1 191/12/1 192/11/1
f 193/17/1 194/18/1 195/14/1 196/13/1
f 197/18/1 198/19/1 199/15/1 200/14/1
f 201/18/1 202/19/1 203/15/1 204/14/1
f 205/18/1 206/19/1 207/15/1 208/14/1
f 209/18/1 210/19/1 211/15/1 212/14/1
f 213/18/1 214/19/1 215/15/1 216/14/1
f 217/18/1 218/19/1 219/15/1 220/14/1
f 221/19/1 222/20/1 223/16/1 224/15/1
f 225/17/1 226/18/1 227/14/1 228/13/1
f 229/18/1 230/19/1 231/15/1 232/14/1
f 233/18/1 234/19/1 235/15/1 236/14/1
f 237/18/1 238/19/1 239/15/1 240/14/1
f 241/18/1 242/19/1 243/15/1 244/14/1
f 245/18/1 246/19/1 247/15/1 248/14/1
f 249/18/1 250/19/1 251/15/1 252/14/1
f 253/19/1 254/20/1 255/16/1 256/15/1
f 257/21/1 258/22/1 259/23/1 260/24/1
f 261/25/1 262/26/1 263/27/1 264/28/1
f 265/29/1 266/21/1 267/24/1 268/30/1
f 269/31/1 270/32/1 271/33/1 272/34/1
f 273/35/1 274/31/1 275/34/1 276/36/1
f 277/31/1 278/32/1 279/33/1 280/34/1
f 281/37/1 282/38/1 283/39/1 284/40/1
f 285/38/1 286/41/1 287/42/1 288/39/1
f 289/43/1 290/1/1 291/4/1 292/44/1
f 293/35/1 294/31/1 295/34/1 296/36/1
f 297/31/1 298/32/1 299/33/1 300/34/1
f 301/45/1 302/46/1 303/47/1 304/48/1
f 305/46/1 306/49/1 307/50/1 308/47/1
f 309/51/1 310/52/1 311/53/1 312/54/1
f 313/35/1 314/31/1 315/34/1 316/36/1
f 317/31/1 318/32/1 319/33/1 320/34/1
f 321/55/1 322/56/1 323/57/1 324/58/1
f 325/59/1 326/60/1 327/46/1 328/45/1
f 329/60/1 330/61/1 331/49/1 332/46/1
f 333/35/1 334/31/1 335/34/1 336/36/1
f 337/31/1 338/32/1 339/33/1 340/34/1
f 341/55/1 342/56/1 343/57/1 344/58/1
f 345/62/1 346/63/1 347/56/1 348/55/1
f 349/64/1 350/65/1 351/66/1 352/67/1
f 353/35/1 354/31/1 355/34/1 356/36/1
f 357/31/1 358/32/1 359/33/1 360/34/1
f 361/62/1 362/63/1 363/56/1 364/55/1
f 365/68/1 366/69/1 367/70/1 368/71/1
f 369/69/1 370/48/1 371/72/1 372/70/1
f 373/35/1 374/31/1 375/34/1 376/36/1
f 377/31/1 378/32/1 379/33/1 380/34/1
f 381/73/1 382/74/1 383/69/1 384/68/1
f 385/74/1 386/45/1 387/48/1 388/69/1
f 389/35/1 390/31/1 391/34/1 392/36/1
f 393/31/1 394/32/1 395/33/1 396/34/1
f 397/75/1 398/51/1 399/54/1 400/76/1
f 401/35/1 402/31/1 403/34/1 404/36/1
f 405/31/1 406/32/1 407/33/1 408/34/1
f 409/35/1 410/31/1 411/34/1 412/36/1
f 413/31/1 414/32/1 415/33/1 416/34/1
f 417/77/1 418/78/1 419/43/1 420/79/1
f 421/35/1 422/31/1 423/34/1 424/36/1
f 425/31/1 426/32/1 427/33/1 428/34/1
f 429/80/1 430/81/1 431/82/1 432/83/1
f 433/81/1 434/84/1 435/85/1 436/82/1
f 437/35/1 438/31/1 439/34/1 440/36/1
f 441/31/1 442/32/1 443/33/1 444/34/1
f 445/86/1 446/36/1 447/21/1 448/29/1
f 449/31/1 450/32/1 451/33/1 452/34/1
f 453/87/1 454/88/1 455/89/1 456/90/1
f 457/88/1 458/91/1 459/92/1 460/89/1
f 461/88/1 462/91/1 463/92/1 464/89/1
f 465/88/1 466/91/1 467/92/1 468/89/1
f 469/88/1 470/91/1 471/92/1 472/89/1
f 473/88/1 474/91/1 475/92/1 476/89/1
f 477/88/1 478/91/1 479/92/1 480/89/1
f 481/91/1 482/93/1 483/94/1 484/92/1
f 485/77/1 486/78/1 487/43/1 488/79/1
f 489/31/1 490/32/1 491/33/1 492/34/1
f 493/87/1 494/88/1 495/89/1 496/90/1
f 497/95/1 498/96/1 499/97/1 500/98/1
f 501/99/1 502/100/1 503/91/1 504/88/1
f 505/99/1 506/100/1 507/91/1 508/88/1
f 509/99/1 510/100/1 511/91/1 512/88/1
f 513/99/1 514/100/1 515/91/1 516/88/1
f 517/99/1 518/100/1 519/91/1 520/88/1
f 521/99/1 522/100/1 523/91/1 524/88/1
f 525/29/1 526/21/1 527/24/1 528/30/1
f 529/31/1 530/32/1 531/33/1 532/34/1
f 533/101/1 534/99/1 535/88/1 536/87/1
f 537/99/1 538/100/1 539/91/1 540/88/1
f 541/99/1 542/100/1 543/91/1 544/88/1
f 545/99/1 546/100/1 547/91/1 548/88/1
f 549/99/1 550/100/1 551/91/1 552/88/1
f 553/99/1 554/100/1 555/91/1 556/88/1
f 557/99/1 558/100/1 559/91/1 560/88/1
f 561/99/1 562/100/1 563/91/1 564/88/1
f 565/35/1 566/31/1 567/34/1 568/36/1
f 569/31/1 570/32/1 571/33/1 572/34/1
f 573/101/1 574/99/1 575/88/1 576/87/1
f 577/99/1 578/100/1 579/91/1 580/88/1
f 581/99/1 582/100/1 583/91/1 584/88/1
f 585/99/1 586/100/1 587/91/1 588/88/1
f 589/99/1 590/100/1 591/91/1 592/88/1
f 593/99/1 594/100/1 595/91/1 596/88/1
f 597/99/1 598/100/1 599/91/1 600/88/1
f 601/35/1 602/31/1 603/34/1 604/36/1
f 605/31/1 606/32/1 607/33/1 608/34/1
f 609/101/1 610/99/1 611/88/1 612/87/1
f 613/99/1 614/100/1 615/91/1 616/88/1
f 617/99/1 618/100/1 619/91/1 620/88/1
f 621/99/1 622/100/1 623/91/1 624/88/1
f 625/99/1 626/100/1 627/91/1 628/88/1
f 629/99/1 630/100/1 631/91/1 632/88/1
f 633/43/1 634/1/1 635/4/1 636/44/1
f 637/35/1 638/31/1 639/34/1 640/36/1
f 641/31/1 642/32/1 643/33/1 644/34/1
f 645/102/1 646/103/1 647/99/1 648/101/1
f 649/98/1 650/97/1 651/104/1 652/103/1
f 653/99/1 654/100/1 655/91/1 656/88/1
f 657/99/1 658/100/1 659/91/1 660/88/1
f 661/99/1 662/100/1 663/91/1 664/88/1
f 665/105/1 666/106/1 667/107/1 668/108/1
f 669/106/1 670/109/1 671/110/1 672/107/1
f 673/109/1 674/111/1 675/112/1 676/110/1
f 677/35/1 678/31/1 679/34/1 680/36/1
f 681/31/1 682/32/1 683/33/1 684/34/1
f 685/103/1 686/104/1 687/100/1 688/99/1
f 689/103/1 690/104/1 691/100/1 692/99/1
f 693/103/1 694/104/1 695/100/1 696/99/1
f 697/105/1 698/106/1 699/107/1 700/108/1
f 701/106/1 702/109/1 703/110/1 704/107/1
f 705/109/1 706/111/1 707/112/1 708/110/1
f 709/35/1 710/31/1 711/34/1 712/36/1
f 713/34/1 714/33/1 715/113/1 716/22/1
f 717/114/1 718/35/1 719/36/1 720/86/1
f 721/114/1 722/35/1 723/36/1 724/86/1
f 725/114/1 726/35/1 727/36/1 728/86/1
f 729/114/1 730/35/1 731/36/1 732/86/1
f 733/114/1 734/35/1 735/36/1 736/86/1
f 737/114/1 738/35/1 739/36/1 740/86/1
f 741/114/1 742/35/1 743/36/1 744/86/1
f 745/114/1 746/35/1 747/36/1 748/86/1
f 749/21/1 750/22/1 751/23/1 752/24/1
f 753/29/1 754/21/1 755/24/1 756/30/1
f 757/114/1 758/35/1 759/36/1 760/86/1
f 761/114/1 762/35/1 763/36/1 764/86/1
f 765/114/1 766/35/1 767/36/1 768/86/1
f 769/114/1 770/35/1 771/36/1 772/86/1
f 773/114/1 774/35/1 775/36/1 776/86/1
f 777/114/1 778/35/1 779/36/1 780/86/1
f 781/114/1 782/35/1 783/36/1 784/86/1
f 785/114/1 786/35/1 787/36/1 788/86/1
f 789/114/1 790/35/1 791/36/1 792/86/1
f 793/114/1 794/35/1 795/36/1 796/86/1
f 797/22/1 798/113/1 799/115/1 800/23/1

