# Tiled2Unity generated file. Do not modify by hand.
# Wavefront file for 'OverworldMap_mesh_0002.obj'

# Vertices (Count = 612)
v -24 -1 0
v -25 -1 0
v -25 0 0
v -24 0 0
v -23 -1 0
v -24 -1 0
v -24 0 0
v -23 0 0
v -22 -1 0
v -23 -1 0
v -23 0 0
v -22 0 0
v -21 -1 0
v -22 -1 0
v -22 0 0
v -21 0 0
v -20 -1 0
v -21 -1 0
v -21 0 0
v -20 0 0
v -19 -1 0
v -20 -1 0
v -20 0 0
v -19 0 0
v -18 -1 0
v -19 -1 0
v -19 0 0
v -18 0 0
v -17 -1 0
v -18 -1 0
v -18 0 0
v -17 0 0
v -16 -1 0
v -17 -1 0
v -17 0 0
v -16 0 0
v -13 -1 0
v -14 -1 0
v -14 0 0
v -13 0 0
v -12 -1 0
v -13 -1 0
v -13 0 0
v -12 0 0
v -11 -1 0
v -12 -1 0
v -12 0 0
v -11 0 0
v -10 -1 0
v -11 -1 0
v -11 0 0
v -10 0 0
v -9 -1 0
v -10 -1 0
v -10 0 0
v -9 0 0
v -8 -1 0
v -9 -1 0
v -9 0 0
v -8 0 0
v -7 -1 0
v -8 -1 0
v -8 0 0
v -7 0 0
v -6 -1 0
v -7 -1 0
v -7 0 0
v -6 0 0
v -5 -1 0
v -6 -1 0
v -6 0 0
v -5 0 0
v -4 -1 0
v -5 -1 0
v -5 0 0
v -4 0 0
v -3 -1 0
v -4 -1 0
v -4 0 0
v -3 0 0
v -2 -1 0
v -3 -1 0
v -3 0 0
v -2 0 0
v -1 -1 0
v -2 -1 0
v -2 0 0
v -1 0 0
v 0 -1 0
v -1 -1 0
v -1 0 0
v 0 0 0
v -24 -2 0
v -25 -2 0
v -25 -1 0
v -24 -1 0
v 0 -2 0
v -1 -2 0
v -1 -1 0
v 0 -1 0
v -24 -3 0
v -25 -3 0
v -25 -2 0
v -24 -2 0
v 0 -3 0
v -1 -3 0
v -1 -2 0
v 0 -2 0
v -24 -4 0
v -25 -4 0
v -25 -3 0
v -24 -3 0
v -4 -4 0
v -5 -4 0
v -5 -3 0
v -4 -3 0
v -3 -4 0
v -4 -4 0
v -4 -3 0
v -3 -3 0
v 0 -4 0
v -1 -4 0
v -1 -3 0
v 0 -3 0
v -24 -5 0
v -25 -5 0
v -25 -4 0
v -24 -4 0
v -6 -5 0
v -7 -5 0
v -7 -4 0
v -6 -4 0
v -5 -5 0
v -6 -5 0
v -6 -4 0
v -5 -4 0
v -4 -5 0
v -5 -5 0
v -5 -4 0
v -4 -4 0
v -3 -5 0
v -4 -5 0
v -4 -4 0
v -3 -4 0
v 0 -5 0
v -1 -5 0
v -1 -4 0
v 0 -4 0
v -24 -6 0
v -25 -6 0
v -25 -5 0
v -24 -5 0
v -6 -6 0
v -7 -6 0
v -7 -5 0
v -6 -5 0
v -5 -6 0
v -6 -6 0
v -6 -5 0
v -5 -5 0
v 0 -6 0
v -1 -6 0
v -1 -5 0
v 0 -5 0
v -24 -7 0
v -25 -7 0
v -25 -6 0
v -24 -6 0
v -21 -7 0
v -22 -7 0
v -22 -6 0
v -21 -6 0
v 0 -7 0
v -1 -7 0
v -1 -6 0
v 0 -6 0
v -24 -8 0
v -25 -8 0
v -25 -7 0
v -24 -7 0
v 0 -8 0
v -1 -8 0
v -1 -7 0
v 0 -7 0
v -24 -9 0
v -25 -9 0
v -25 -8 0
v -24 -8 0
v -9 -9 0
v -10 -9 0
v -10 -8 0
v -9 -8 0
v -8 -9 0
v -9 -9 0
v -9 -8 0
v -8 -8 0
v -7 -9 0
v -8 -9 0
v -8 -8 0
v -7 -8 0
v -6 -9 0
v -7 -9 0
v -7 -8 0
v -6 -8 0
v -5 -9 0
v -6 -9 0
v -6 -8 0
v -5 -8 0
v 0 -9 0
v -1 -9 0
v -1 -8 0
v 0 -8 0
v -24 -10 0
v -25 -10 0
v -25 -9 0
v -24 -9 0
v -9 -10 0
v -10 -10 0
v -10 -9 0
v -9 -9 0
v -8 -10 0
v -9 -10 0
v -9 -9 0
v -8 -9 0
v -7 -10 0
v -8 -10 0
v -8 -9 0
v -7 -9 0
v -6 -10 0
v -7 -10 0
v -7 -9 0
v -6 -9 0
v -5 -10 0
v -6 -10 0
v -6 -9 0
v -5 -9 0
v 0 -10 0
v -1 -10 0
v -1 -9 0
v 0 -9 0
v -24 -11 0
v -25 -11 0
v -25 -10 0
v -24 -10 0
v -18 -11 0
v -19 -11 0
v -19 -10 0
v -18 -10 0
v -17 -11 0
v -18 -11 0
v -18 -10 0
v -17 -10 0
v -11 -11 0
v -12 -11 0
v -12 -10 0
v -11 -10 0
v -10 -11 0
v -11 -11 0
v -11 -10 0
v -10 -10 0
v -9 -11 0
v -10 -11 0
v -10 -10 0
v -9 -10 0
v -8 -11 0
v -9 -11 0
v -9 -10 0
v -8 -10 0
v -7 -11 0
v -8 -11 0
v -8 -10 0
v -7 -10 0
v -6 -11 0
v -7 -11 0
v -7 -10 0
v -6 -10 0
v -5 -11 0
v -6 -11 0
v -6 -10 0
v -5 -10 0
v 0 -11 0
v -1 -11 0
v -1 -10 0
v 0 -10 0
v -24 -12 0
v -25 -12 0
v -25 -11 0
v -24 -11 0
v -18 -12 0
v -19 -12 0
v -19 -11 0
v -18 -11 0
v -17 -12 0
v -18 -12 0
v -18 -11 0
v -17 -11 0
v -11 -12 0
v -12 -12 0
v -12 -11 0
v -11 -11 0
v -10 -12 0
v -11 -12 0
v -11 -11 0
v -10 -11 0
v -9 -12 0
v -10 -12 0
v -10 -11 0
v -9 -11 0
v -8 -12 0
v -9 -12 0
v -9 -11 0
v -8 -11 0
v -7 -12 0
v -8 -12 0
v -8 -11 0
v -7 -11 0
v -6 -12 0
v -7 -12 0
v -7 -11 0
v -6 -11 0
v -5 -12 0
v -6 -12 0
v -6 -11 0
v -5 -11 0
v -4 -12 0
v -5 -12 0
v -5 -11 0
v -4 -11 0
v -3 -12 0
v -4 -12 0
v -4 -11 0
v -3 -11 0
v 0 -12 0
v -1 -12 0
v -1 -11 0
v 0 -11 0
v -24 -13 0
v -25 -13 0
v -25 -12 0
v -24 -12 0
v -11 -13 0
v -12 -13 0
v -12 -12 0
v -11 -12 0
v -10 -13 0
v -11 -13 0
v -11 -12 0
v -10 -12 0
v -9 -13 0
v -10 -13 0
v -10 -12 0
v -9 -12 0
v -8 -13 0
v -9 -13 0
v -9 -12 0
v -8 -12 0
v -7 -13 0
v -8 -13 0
v -8 -12 0
v -7 -12 0
v -6 -13 0
v -7 -13 0
v -7 -12 0
v -6 -12 0
v -5 -13 0
v -6 -13 0
v -6 -12 0
v -5 -12 0
v -4 -13 0
v -5 -13 0
v -5 -12 0
v -4 -12 0
v -3 -13 0
v -4 -13 0
v -4 -12 0
v -3 -12 0
v 0 -13 0
v -1 -13 0
v -1 -12 0
v 0 -12 0
v -24 -14 0
v -25 -14 0
v -25 -13 0
v -24 -13 0
v 0 -14 0
v -1 -14 0
v -1 -13 0
v 0 -13 0
v -24 -15 0
v -25 -15 0
v -25 -14 0
v -24 -14 0
v 0 -15 0
v -1 -15 0
v -1 -14 0
v 0 -14 0
v -24 -16 0
v -25 -16 0
v -25 -15 0
v -24 -15 0
v -21 -16 0
v -22 -16 0
v -22 -15 0
v -21 -15 0
v -20 -16 0
v -21 -16 0
v -21 -15 0
v -20 -15 0
v 0 -16 0
v -1 -16 0
v -1 -15 0
v 0 -15 0
v -24 -17 0
v -25 -17 0
v -25 -16 0
v -24 -16 0
v -21 -17 0
v -22 -17 0
v -22 -16 0
v -21 -16 0
v -20 -17 0
v -21 -17 0
v -21 -16 0
v -20 -16 0
v 0 -17 0
v -1 -17 0
v -1 -16 0
v 0 -16 0
v -24 -18 0
v -25 -18 0
v -25 -17 0
v -24 -17 0
v -24 -19 0
v -25 -19 0
v -25 -18 0
v -24 -18 0
v 0 -19 0
v -1 -19 0
v -1 -18 0
v 0 -18 0
v 0 -20 0
v -1 -20 0
v -1 -19 0
v 0 -19 0
v -24 -21 0
v -25 -21 0
v -25 -20 0
v -24 -20 0
v -19 -21 0
v -20 -21 0
v -20 -20 0
v -19 -20 0
v -18 -21 0
v -19 -21 0
v -19 -20 0
v -18 -20 0
v -3 -21 0
v -4 -21 0
v -4 -20 0
v -3 -20 0
v 0 -21 0
v -1 -21 0
v -1 -20 0
v 0 -20 0
v -24 -22 0
v -25 -22 0
v -25 -21 0
v -24 -21 0
v -19 -22 0
v -20 -22 0
v -20 -21 0
v -19 -21 0
v -18 -22 0
v -19 -22 0
v -19 -21 0
v -18 -21 0
v -5 -22 0
v -6 -22 0
v -6 -21 0
v -5 -21 0
v -4 -22 0
v -5 -22 0
v -5 -21 0
v -4 -21 0
v 0 -22 0
v -1 -22 0
v -1 -21 0
v 0 -21 0
v -24 -23 0
v -25 -23 0
v -25 -22 0
v -24 -22 0
v -5 -23 0
v -6 -23 0
v -6 -22 0
v -5 -22 0
v -4 -23 0
v -5 -23 0
v -5 -22 0
v -4 -22 0
v 0 -23 0
v -1 -23 0
v -1 -22 0
v 0 -22 0
v -24 -24 0
v -25 -24 0
v -25 -23 0
v -24 -23 0
v 0 -24 0
v -1 -24 0
v -1 -23 0
v 0 -23 0
v -24 -25 0
v -25 -25 0
v -25 -24 0
v -24 -24 0
v -23 -25 0
v -24 -25 0
v -24 -24 0
v -23 -24 0
v -22 -25 0
v -23 -25 0
v -23 -24 0
v -22 -24 0
v -21 -25 0
v -22 -25 0
v -22 -24 0
v -21 -24 0
v -20 -25 0
v -21 -25 0
v -21 -24 0
v -20 -24 0
v -19 -25 0
v -20 -25 0
v -20 -24 0
v -19 -24 0
v -18 -25 0
v -19 -25 0
v -19 -24 0
v -18 -24 0
v -17 -25 0
v -18 -25 0
v -18 -24 0
v -17 -24 0
v -16 -25 0
v -17 -25 0
v -17 -24 0
v -16 -24 0
v -15 -25 0
v -16 -25 0
v -16 -24 0
v -15 -24 0
v -14 -25 0
v -15 -25 0
v -15 -24 0
v -14 -24 0
v -13 -25 0
v -14 -25 0
v -14 -24 0
v -13 -24 0
v -12 -25 0
v -13 -25 0
v -13 -24 0
v -12 -24 0
v -11 -25 0
v -12 -25 0
v -12 -24 0
v -11 -24 0
v -10 -25 0
v -11 -25 0
v -11 -24 0
v -10 -24 0
v -9 -25 0
v -10 -25 0
v -10 -24 0
v -9 -24 0
v -8 -25 0
v -9 -25 0
v -9 -24 0
v -8 -24 0
v -7 -25 0
v -8 -25 0
v -8 -24 0
v -7 -24 0
v -6 -25 0
v -7 -25 0
v -7 -24 0
v -6 -24 0
v -5 -25 0
v -6 -25 0
v -6 -24 0
v -5 -24 0
v -4 -25 0
v -5 -25 0
v -5 -24 0
v -4 -24 0
v -3 -25 0
v -4 -25 0
v -4 -24 0
v -3 -24 0
v -2 -25 0
v -3 -25 0
v -3 -24 0
v -2 -24 0
v -1 -25 0
v -2 -25 0
v -2 -24 0
v -1 -24 0
v 0 -25 0
v -1 -25 0
v -1 -24 0
v 0 -24 0

# Texture cooridinates (Count = 103)
vt 0.175 0.5
vt 0.2 0.5
vt 0.2 0.5277778
vt 0.175 0.5277778
vt 0.125 0.4444444
vt 0.15 0.4444444
vt 0.15 0.4722222
vt 0.125 0.4722222
vt 0.125 0.5
vt 0.15 0.5
vt 0.15 0.5277778
vt 0.125 0.5277778
vt 0.2 0.5555556
vt 0.175 0.5555556
vt 0.175 0.4722222
vt 0.2 0.4722222
vt 0.55 0.4166667
vt 0.575 0.4166667
vt 0.575 0.4444444
vt 0.55 0.4444444
vt 0.525 0.4166667
vt 0.525 0.4444444
vt 0.55 0.3888889
vt 0.575 0.3888889
vt 0.525 0.3888889
vt 0.175 0.8333333
vt 0.2 0.8333333
vt 0.2 0.8611111
vt 0.175 0.8611111
vt 0.25 0.9722222
vt 0.275 0.9722222
vt 0.275 1
vt 0.25 1
vt 0.225 0.9722222
vt 0.225 1
vt 0.2 0.9722222
vt 0.2 1
vt 0.175 0.9722222
vt 0.175 1
vt 0.15 0.9722222
vt 0.15 1
vt 0.25 0.9444444
vt 0.275 0.9444444
vt 0.225 0.9444444
vt 0.2 0.9444444
vt 0.175 0.9444444
vt 0.15 0.9444444
vt 0.25 0.6666666
vt 0.275 0.6666666
vt 0.275 0.6944444
vt 0.25 0.6944444
vt 0.225 0.6666666
vt 0.225 0.6944444
vt 0.35 0.8333333
vt 0.375 0.8333333
vt 0.375 0.8611111
vt 0.35 0.8611111
vt 0.325 0.8333333
vt 0.325 0.8611111
vt 0.25 0.9166667
vt 0.275 0.9166667
vt 0.225 0.9166667
vt 0.2 0.9166667
vt 0.175 0.9166667
vt 0.15 0.9166667
vt 0.25 0.6388889
vt 0.275 0.6388889
vt 0.225 0.6388889
vt 0.35 0.8055556
vt 0.375 0.8055556
vt 0.325 0.8055556
vt 0.25 0.8888889
vt 0.275 0.8888889
vt 0.225 0.8888889
vt 0.2 0.8888889
vt 0.175 0.8888889
vt 0.15 0.8888889
vt 0.15 0.5555556
vt 0.125 0.5555556
vt 0.35 0.7777778
vt 0.375 0.7777778
vt 0.325 0.7777778
vt 0.25 0.8611111
vt 0.275 0.8611111
vt 0.225 0.8611111
vt 0.15 0.8611111
vt 0.125 0.9444444
vt 0.125 0.9722222
vt 0.1 0.9444444
vt 0.1 0.9722222
vt 0.125 0.9166667
vt 0.1 0.9166667
vt 0.8 0.8888889
vt 0.825 0.8888889
vt 0.825 0.9166667
vt 0.8 0.9166667
vt 0.775 0.8888889
vt 0.775 0.9166667
vt 0.225 0.8333333
vt 0.25 0.8333333
vt 0.8 0.8611111
vt 0.825 0.8611111
vt 0.775 0.8611111

# Normal
vn 0 0 -1

# Mesh description
g OverworldMap_mesh_0002

# Faces
f 1/1/1 2/2/1 3/3/1 4/4/1
f 5/5/1 6/6/1 7/7/1 8/8/1
f 9/5/1 10/6/1 11/7/1 12/8/1
f 13/5/1 14/6/1 15/7/1 16/8/1
f 17/5/1 18/6/1 19/7/1 20/8/1
f 21/5/1 22/6/1 23/7/1 24/8/1
f 25/5/1 26/6/1 27/7/1 28/8/1
f 29/5/1 30/6/1 31/7/1 32/8/1
f 33/9/1 34/10/1 35/11/1 36/12/1
f 37/10/1 38/1/1 39/4/1 40/11/1
f 41/5/1 42/6/1 43/7/1 44/8/1
f 45/5/1 46/6/1 47/7/1 48/8/1
f 49/5/1 50/6/1 51/7/1 52/8/1
f 53/5/1 54/6/1 55/7/1 56/8/1
f 57/5/1 58/6/1 59/7/1 60/8/1
f 61/5/1 62/6/1 63/7/1 64/8/1
f 65/5/1 66/6/1 67/7/1 68/8/1
f 69/5/1 70/6/1 71/7/1 72/8/1
f 73/5/1 74/6/1 75/7/1 76/8/1
f 77/5/1 78/6/1 79/7/1 80/8/1
f 81/5/1 82/6/1 83/7/1 84/8/1
f 85/5/1 86/6/1 87/7/1 88/8/1
f 89/4/1 90/3/1 91/13/1 92/14/1
f 93/7/1 94/15/1 95/1/1 96/10/1
f 97/15/1 98/16/1 99/2/1 100/1/1
f 101/7/1 102/15/1 103/1/1 104/10/1
f 105/15/1 106/16/1 107/2/1 108/1/1
f 109/7/1 110/15/1 111/1/1 112/10/1
f 113/17/1 114/18/1 115/19/1 116/20/1
f 117/21/1 118/17/1 119/20/1 120/22/1
f 121/15/1 122/16/1 123/2/1 124/1/1
f 125/7/1 126/15/1 127/1/1 128/10/1
f 129/17/1 130/18/1 131/19/1 132/20/1
f 133/21/1 134/17/1 135/20/1 136/22/1
f 137/23/1 138/24/1 139/18/1 140/17/1
f 141/25/1 142/23/1 143/17/1 144/21/1
f 145/15/1 146/16/1 147/2/1 148/1/1
f 149/7/1 150/15/1 151/1/1 152/10/1
f 153/23/1 154/24/1 155/18/1 156/17/1
f 157/25/1 158/23/1 159/17/1 160/21/1
f 161/15/1 162/16/1 163/2/1 164/1/1
f 165/7/1 166/15/1 167/1/1 168/10/1
f 169/26/1 170/27/1 171/28/1 172/29/1
f 173/15/1 174/16/1 175/2/1 176/1/1
f 177/7/1 178/15/1 179/1/1 180/10/1
f 181/15/1 182/16/1 183/2/1 184/1/1
f 185/7/1 186/15/1 187/1/1 188/10/1
f 189/30/1 190/31/1 191/32/1 192/33/1
f 193/34/1 194/30/1 195/33/1 196/35/1
f 197/36/1 198/34/1 199/35/1 200/37/1
f 201/38/1 202/36/1 203/37/1 204/39/1
f 205/40/1 206/38/1 207/39/1 208/41/1
f 209/15/1 210/16/1 211/2/1 212/1/1
f 213/7/1 214/15/1 215/1/1 216/10/1
f 217/42/1 218/43/1 219/31/1 220/30/1
f 221/44/1 222/42/1 223/30/1 224/34/1
f 225/45/1 226/44/1 227/34/1 228/36/1
f 229/46/1 230/45/1 231/36/1 232/38/1
f 233/47/1 234/46/1 235/38/1 236/40/1
f 237/15/1 238/16/1 239/2/1 240/1/1
f 241/7/1 242/15/1 243/1/1 244/10/1
f 245/48/1 246/49/1 247/50/1 248/51/1
f 249/52/1 250/48/1 251/51/1 252/53/1
f 253/54/1 254/55/1 255/56/1 256/57/1
f 257/58/1 258/54/1 259/57/1 260/59/1
f 261/60/1 262/61/1 263/43/1 264/42/1
f 265/62/1 266/60/1 267/42/1 268/44/1
f 269/63/1 270/62/1 271/44/1 272/45/1
f 273/64/1 274/63/1 275/45/1 276/46/1
f 277/65/1 278/64/1 279/46/1 280/47/1
f 281/15/1 282/16/1 283/2/1 284/1/1
f 285/7/1 286/15/1 287/1/1 288/10/1
f 289/66/1 290/67/1 291/49/1 292/48/1
f 293/68/1 294/66/1 295/48/1 296/52/1
f 297/69/1 298/70/1 299/55/1 300/54/1
f 301/71/1 302/69/1 303/54/1 304/58/1
f 305/72/1 306/73/1 307/61/1 308/60/1
f 309/74/1 310/72/1 311/60/1 312/62/1
f 313/75/1 314/74/1 315/62/1 316/63/1
f 317/76/1 318/75/1 319/63/1 320/64/1
f 321/77/1 322/76/1 323/64/1 324/65/1
f 325/11/1 326/4/1 327/14/1 328/78/1
f 329/12/1 330/11/1 331/78/1 332/79/1
f 333/15/1 334/16/1 335/2/1 336/1/1
f 337/7/1 338/15/1 339/1/1 340/10/1
f 341/80/1 342/81/1 343/70/1 344/69/1
f 345/82/1 346/80/1 347/69/1 348/71/1
f 349/83/1 350/84/1 351/73/1 352/72/1
f 353/85/1 354/83/1 355/72/1 356/74/1
f 357/28/1 358/85/1 359/74/1 360/75/1
f 361/29/1 362/28/1 363/75/1 364/76/1
f 365/86/1 366/29/1 367/76/1 368/77/1
f 369/10/1 370/1/1 371/4/1 372/11/1
f 373/9/1 374/10/1 375/11/1 376/12/1
f 377/15/1 378/16/1 379/2/1 380/1/1
f 381/7/1 382/15/1 383/1/1 384/10/1
f 385/15/1 386/16/1 387/2/1 388/1/1
f 389/7/1 390/15/1 391/1/1 392/10/1
f 393/15/1 394/16/1 395/2/1 396/1/1
f 397/7/1 398/15/1 399/1/1 400/10/1
f 401/87/1 402/47/1 403/40/1 404/88/1
f 405/89/1 406/87/1 407/88/1 408/90/1
f 409/15/1 410/16/1 411/2/1 412/1/1
f 413/7/1 414/15/1 415/1/1 416/10/1
f 417/91/1 418/65/1 419/47/1 420/87/1
f 421/92/1 422/91/1 423/87/1 424/89/1
f 425/10/1 426/1/1 427/4/1 428/11/1
f 429/7/1 430/15/1 431/1/1 432/10/1
f 433/9/1 434/10/1 435/11/1 436/12/1
f 437/11/1 438/4/1 439/14/1 440/78/1
f 441/15/1 442/16/1 443/2/1 444/1/1
f 445/12/1 446/11/1 447/78/1 448/79/1
f 449/93/1 450/94/1 451/95/1 452/96/1
f 453/97/1 454/93/1 455/96/1 456/98/1
f 457/99/1 458/100/1 459/83/1 460/85/1
f 461/15/1 462/16/1 463/2/1 464/1/1
f 465/7/1 466/15/1 467/1/1 468/10/1
f 469/101/1 470/102/1 471/94/1 472/93/1
f 473/103/1 474/101/1 475/93/1 476/97/1
f 477/93/1 478/94/1 479/95/1 480/96/1
f 481/97/1 482/93/1 483/96/1 484/98/1
f 485/15/1 486/16/1 487/2/1 488/1/1
f 489/7/1 490/15/1 491/1/1 492/10/1
f 493/101/1 494/102/1 495/94/1 496/93/1
f 497/103/1 498/101/1 499/93/1 500/97/1
f 501/15/1 502/16/1 503/2/1 504/1/1
f 505/7/1 506/15/1 507/1/1 508/10/1
f 509/15/1 510/16/1 511/2/1 512/1/1
f 513/4/1 514/3/1 515/13/1 516/14/1
f 517/8/1 518/7/1 519/10/1 520/9/1
f 521/8/1 522/7/1 523/10/1 524/9/1
f 525/8/1 526/7/1 527/10/1 528/9/1
f 529/8/1 530/7/1 531/10/1 532/9/1
f 533/8/1 534/7/1 535/10/1 536/9/1
f 537/8/1 538/7/1 539/10/1 540/9/1
f 541/8/1 542/7/1 543/10/1 544/9/1
f 545/8/1 546/7/1 547/10/1 548/9/1
f 549/8/1 550/7/1 551/10/1 552/9/1
f 553/8/1 554/7/1 555/10/1 556/9/1
f 557/8/1 558/7/1 559/10/1 560/9/1
f 561/8/1 562/7/1 563/10/1 564/9/1
f 565/8/1 566/7/1 567/10/1 568/9/1
f 569/8/1 570/7/1 571/10/1 572/9/1
f 573/8/1 574/7/1 575/10/1 576/9/1
f 577/8/1 578/7/1 579/10/1 580/9/1
f 581/8/1 582/7/1 583/10/1 584/9/1
f 585/8/1 586/7/1 587/10/1 588/9/1
f 589/8/1 590/7/1 591/10/1 592/9/1
f 593/8/1 594/7/1 595/10/1 596/9/1
f 597/8/1 598/7/1 599/10/1 600/9/1
f 601/8/1 602/7/1 603/10/1 604/9/1
f 605/8/1 606/7/1 607/10/1 608/9/1
f 609/1/1 610/2/1 611/3/1 612/4/1

